<?xml version="1.0" standalone="no"?>
<!DOCTYPE svg PUBLIC "-//W3C//DTD SVG 20010904//EN"
 "http://www.w3.org/TR/2001/REC-SVG-20010904/DTD/svg10.dtd">
<svg version="1.0" xmlns="http://www.w3.org/2000/svg"
 width="3334.000000pt" height="3334.000000pt" viewBox="0 0 3334.000000 3334.000000"
 preserveAspectRatio="xMidYMid meet">

<g transform="translate(0.000000,3334.000000) scale(0.100000,-0.100000)"
fill="#000000" stroke="none">
<path d="M14344 26388 c-68 -71 -101 -115 -169 -228 -165 -271 -426 -873 -641
-1478 -31 -86 -57 -158 -59 -160 -7 -8 -101 157 -165 291 -111 232 -317 745
-445 1112 -16 44 -31 83 -35 88 -9 10 -147 -251 -218 -413 -179 -407 -280
-770 -339 -1215 -21 -165 -25 -703 -5 -870 47 -402 144 -793 289 -1160 57
-144 174 -392 237 -502 20 -35 34 -63 32 -63 -3 0 -25 9 -51 20 -107 46 -204
64 -345 64 -111 1 -149 -3 -213 -22 -84 -24 -195 -76 -266 -125 -111 -76 -270
-254 -337 -376 -15 -28 -32 -51 -38 -51 -27 1 -1531 -124 -1535 -127 -5 -3 27
-835 32 -839 2 -2 43 -6 92 -10 l90 -7 66 -213 65 -213 -96 -39 c-266 -107
-449 -275 -525 -482 -24 -63 -28 -94 -31 -192 l-3 -117 -57 -128 c-275 -620
-305 -1182 -88 -1639 122 -257 364 -516 639 -684 73 -45 222 -120 272 -137 27
-10 31 -18 62 -144 88 -355 222 -601 455 -835 151 -150 290 -250 476 -338 586
-278 1402 -321 2370 -126 107 21 196 38 197 36 1 -1 -370 -256 -825 -566 -455
-310 -842 -575 -860 -588 l-33 -25 108 -79 c60 -43 108 -82 108 -87 0 -4 -156
-144 -347 -310 l-348 -302 14 -27 c8 -15 51 -94 95 -176 45 -82 80 -150 79
-151 -2 -1 -275 -24 -608 -50 -333 -26 -608 -50 -612 -54 -9 -8 -454 -4868
-447 -4876 5 -4 13088 1384 13097 1390 5 3 381 5089 377 5093 -3 3 -216 -12
-474 -34 l-470 -38 -19 24 c-11 14 -130 160 -265 325 -135 165 -244 302 -242
304 2 2 140 30 306 62 166 33 304 61 306 63 5 5 -32 30 -1212 831 -517 351
-944 642 -950 647 -6 6 69 8 208 6 119 -1 217 -1 217 2 0 3 -85 107 -190 232
-104 125 -190 229 -190 231 0 2 19 0 43 -5 23 -5 128 -11 232 -15 201 -6 326
3 490 37 93 19 255 67 255 76 0 2 -161 212 -359 466 l-358 463 221 62 c389
111 647 205 901 327 243 117 405 228 476 324 l30 41 -43 31 c-24 17 -330 234
-680 483 -351 248 -638 453 -638 456 1 3 33 31 72 61 136 105 314 268 493 451
258 264 466 518 657 804 75 111 85 131 70 137 -9 4 -379 100 -822 213 -443
113 -813 208 -823 211 -16 5 -15 9 9 47 43 70 171 338 265 560 151 352 459
1132 459 1162 0 38 -326 49 -596 20 -283 -30 -694 -104 -1093 -196 -100 -23
-183 -40 -185 -38 -2 2 34 406 80 898 46 492 82 896 80 899 -10 9 -260 -20
-366 -44 -381 -85 -803 -297 -1169 -586 -47 -37 -89 -68 -93 -68 -4 0 -16 29
-27 65 -58 185 -92 555 -113 1217 l-12 376 -80 -29 c-207 -76 -494 -233 -706
-387 -246 -180 -523 -441 -710 -670 l-84 -104 -20 24 c-95 115 -269 653 -396
1230 l-44 196 -49 -18 c-54 -21 -97 -51 -176 -125 -168 -157 -477 -567 -783
-1041 l-112 -174 -25 23 c-65 60 -222 341 -345 619 -111 252 -278 686 -365
951 -18 53 -36 97 -40 97 -4 0 -29 -24 -57 -52z m1862 -865 c-55 -80 -78 -133
-91 -213 -4 -25 -20 -70 -35 -100 -73 -146 -149 -403 -187 -635 -26 -156 -25
-682 1 -865 25 -179 62 -373 102 -542 20 -82 34 -153 32 -159 -2 -6 -93 195
-203 445 l-200 456 -5 -262 -5 -263 -52 125 c-105 253 -137 409 -137 655 1
188 19 300 75 470 109 326 359 668 649 886 57 44 106 79 108 79 1 0 -22 -35
-52 -77z m-1927 -107 c-211 -512 -214 -1143 -9 -1661 59 -149 243 -485 258
-470 3 2 8 63 12 135 8 147 17 171 84 204 96 47 204 -51 168 -154 -10 -28 -10
-30 9 -19 28 15 57 65 64 113 12 72 27 115 50 136 23 21 72 29 94 16 7 -4 11
0 11 12 0 10 11 29 25 42 52 49 125 23 197 -70 38 -48 123 -198 117 -205 -2
-2 -51 35 -109 81 -178 144 -173 150 -59 -73 56 -109 117 -226 135 -260 l33
-62 -21 -16 c-12 -8 -25 -11 -29 -7 -4 4 -75 106 -158 226 -83 121 -151 216
-151 211 0 -4 54 -205 121 -447 66 -242 119 -442 117 -444 -2 -2 -128 175
-279 393 -150 217 -279 403 -286 412 -14 19 -19 37 121 -479 57 -212 103 -386
102 -388 -2 -1 -130 151 -286 338 -156 187 -285 339 -286 337 -2 -2 10 -115
27 -251 16 -137 28 -251 25 -253 -10 -10 -261 173 -278 203 -52 89 -128 344
-153 514 l-7 45 45 -50 45 -50 -23 90 c-30 117 -52 249 -66 394 -14 143 -6
436 16 581 36 239 115 498 214 705 53 111 137 265 145 265 2 0 -14 -42 -35
-94z m3737 -160 c-6 -38 -16 -53 -64 -97 -31 -28 -124 -97 -207 -152 -302
-201 -477 -432 -596 -786 -61 -185 -119 -499 -119 -656 0 -27 -4 -56 -9 -63
-14 -23 -31 127 -31 276 0 94 -3 132 -10 122 -18 -26 -89 -261 -110 -360 -18
-87 -40 -267 -57 -475 l-6 -80 -24 125 c-30 159 -41 420 -24 581 70 678 399
1184 966 1486 91 48 287 133 294 127 2 -2 0 -23 -3 -48z m-5101 -220 c9 -55
27 -131 40 -170 17 -49 35 -155 59 -346 75 -585 169 -1109 302 -1684 62 -264
147 -588 169 -644 l15 -37 -26 30 c-58 68 -189 277 -255 407 -229 452 -349
954 -379 1588 -11 234 0 572 25 760 26 202 28 215 31 205 2 -5 10 -55 19 -109z
m6674 -667 c-58 -43 -158 -105 -394 -245 -327 -193 -468 -330 -608 -591 -44
-83 -80 -130 -182 -243 -71 -77 -129 -139 -131 -137 -2 2 18 59 46 126 30 75
43 118 33 109 -38 -31 -231 -271 -294 -367 -88 -130 -113 -179 -161 -316 l-38
-110 5 130 c10 290 131 587 350 860 268 335 708 609 1245 775 74 23 140 43
145 45 37 12 31 -1 -16 -36z m1401 -1558 c-511 -177 -1000 -405 -1440 -671
-55 -33 -102 -60 -105 -60 -3 0 90 84 207 186 117 102 222 194 232 204 14 14
-37 2 -200 -45 -120 -36 -311 -91 -424 -124 l-205 -60 77 73 c269 256 673 422
1240 510 84 13 209 29 278 35 69 6 141 13 160 15 19 1 112 3 205 4 l170 1
-195 -68z m-4425 -261 c491 -42 1000 -170 1435 -362 972 -428 1666 -1213 1951
-2206 39 -134 89 -362 89 -398 -1 -11 -26 44 -56 121 -262 668 -704 1259
-1276 1704 l-68 52 21 -46 c59 -134 20 -276 -88 -321 -50 -21 -140 -17 -205
10 -127 52 -221 154 -260 279 -44 147 12 256 149 291 l46 12 -125 64 -125 64
-32 -32 c-61 -61 -155 -65 -218 -9 -42 37 -55 67 -54 128 l0 46 -122 41 c-805
271 -1690 277 -2486 17 -182 -60 -328 -120 -576 -238 -230 -110 -308 -136
-420 -144 l-80 -5 100 102 c419 428 1012 723 1630 810 77 11 160 21 185 23
107 8 475 6 585 -3z m-2865 -766 c-8 -27 -8 -26 -9 16 0 32 2 40 9 29 5 -9 6
-28 0 -45z m2460 -468 l0 -45 -42 -5 c-45 -6 -2793 -166 -2840 -166 -21 0 -28
-5 -28 -20 0 -11 -5 -20 -11 -20 -12 0 -7 -114 17 -375 29 -326 113 -812 169
-974 46 -135 111 -222 198 -265 61 -31 46 -35 -18 -5 -95 45 -179 177 -245
384 -79 248 -157 613 -176 818 -4 43 -11 80 -15 83 -5 3 -9 15 -9 26 0 12 -8
31 -19 42 -18 20 -18 31 -9 196 11 221 15 241 53 259 24 12 306 24 1485 62
800 25 1463 47 1473 48 14 1 17 -7 17 -43z m4666 -71 c263 -28 568 -94 849
-185 161 -52 485 -172 485 -179 0 -3 -34 -25 -76 -48 -67 -38 -84 -43 -138
-43 -77 0 -259 27 -536 80 -307 58 -431 73 -622 73 -93 0 -168 2 -168 3 0 1
14 11 31 22 l31 19 -144 6 c-78 4 -296 10 -483 13 l-339 7 44 39 c60 53 204
122 320 152 206 55 474 69 746 41z m-5306 -80 c0 -2 -97 -160 -216 -351 -143
-229 -212 -350 -206 -356 6 -6 49 -9 101 -7 50 2 91 3 91 1 0 -1 -26 -35 -58
-75 -32 -39 -108 -135 -168 -212 -201 -258 -473 -554 -570 -621 -56 -38 -57
-39 -167 -43 l-111 -3 99 104 c109 114 220 259 303 395 65 108 69 146 18 191
l-34 30 268 453 c185 312 265 458 259 466 -7 8 9 13 63 17 160 13 328 19 328
11z m-492 -37 c-8 -13 -144 -240 -303 -506 -158 -265 -306 -503 -328 -528 -49
-56 -122 -94 -180 -94 -45 0 -67 13 -67 40 0 9 29 58 65 108 190 270 362 582
490 889 l38 91 116 7 c104 5 147 9 175 14 4 0 2 -9 -6 -21z m-4568 -570 c0 -7
63 -170 141 -363 77 -192 143 -359 146 -371 5 -22 -23 -42 -38 -27 -4 4 -73
174 -154 378 -135 341 -145 370 -129 382 22 16 34 16 34 1z m2551 -79 c5 -8 9
-37 9 -64 l0 -51 -77 -51 c-162 -106 -295 -145 -738 -214 -414 -64 -650 -153
-925 -347 -123 -87 -345 -309 -432 -432 -157 -223 -266 -492 -320 -790 -16
-91 -16 -481 0 -555 5 -27 8 -52 6 -54 -2 -2 -98 25 -214 61 -147 46 -212 62
-218 54 -4 -6 -6 -56 -6 -111 2 -165 57 -291 187 -431 173 -186 385 -268 697
-268 243 0 505 53 874 176 444 148 845 332 1761 809 673 349 1087 534 1511
673 796 260 1519 283 2164 69 119 -39 420 -173 420 -187 0 -3 -21 2 -47 10
-318 98 -652 146 -1013 147 -335 1 -569 -28 -885 -108 -428 -108 -752 -262
-1439 -683 -523 -320 -815 -479 -1146 -625 -679 -299 -1419 -495 -2154 -572
-772 -80 -1064 127 -1186 842 -53 305 -33 579 61 838 l33 90 18 -75 c46 -188
160 -351 330 -470 39 -28 73 -49 74 -47 2 2 -34 88 -80 193 -342 772 -274
1065 314 1359 63 32 429 208 813 391 747 358 791 375 1018 413 174 29 182 29
392 27 151 -2 190 -5 198 -17z m5540 -151 c51 -15 114 -69 141 -122 31 -57 31
-155 1 -212 -99 -187 -388 -173 -469 22 -19 44 -18 126 1 172 21 49 80 110
130 133 46 21 138 25 196 7z m434 -417 c103 -60 101 -213 -5 -275 -74 -43
-179 -18 -227 54 -27 39 -31 116 -9 158 43 83 156 113 241 63z m-684 -49 c164
-86 117 -268 -79 -304 -176 -33 -341 98 -278 220 40 76 109 111 222 112 70 0
89 -4 135 -28z m425 -343 c139 -67 175 -231 76 -341 -49 -54 -102 -78 -177
-78 -205 0 -310 224 -172 369 68 71 186 93 273 50z m2049 -9 c389 -75 846
-316 1269 -669 l91 -76 -159 -17 -159 -17 -79 74 c-152 143 -356 278 -540 356
-42 18 -76 37 -75 41 1 5 -172 77 -385 161 -213 83 -384 155 -380 158 24 25
267 18 417 -11z m-8665 -103 c123 -43 222 -120 286 -222 19 -30 18 -30 -1 -15
-11 8 -36 28 -54 44 -53 44 -168 94 -255 111 -246 47 -611 -31 -832 -177 -65
-44 -172 -147 -221 -213 l-22 -30 9 33 c51 188 248 366 495 446 134 44 216 55
375 52 125 -3 155 -7 220 -29z m5702 -764 c59 -8 115 -22 125 -30 16 -13 15
-14 -17 -8 -96 17 -299 45 -328 45 -20 0 -31 4 -27 10 7 12 86 6 247 -17z
m-765 -365 c-1103 -974 -1567 -1357 -2120 -1752 -1011 -723 -1702 -1017 -2385
-1016 -243 0 -443 33 -656 107 -184 64 -383 177 -502 285 -44 41 -59 50 -72
42 -28 -18 -24 -28 37 -100 137 -163 350 -307 564 -383 159 -56 260 -72 494
-78 242 -6 309 -1 833 62 201 25 372 45 380 44 27 -2 -359 -98 -535 -133 -273
-55 -404 -70 -635 -69 -165 0 -228 4 -324 22 -474 85 -906 368 -1177 770 -64
95 -139 229 -139 249 0 4 51 2 113 -4 809 -89 1727 26 2500 312 586 217 924
410 1727 984 689 492 987 673 1368 829 306 125 652 208 880 210 l83 1 -434
-382z m-1457 1 c0 -156 -3 -200 -12 -196 -7 2 -104 31 -215 63 -112 33 -203
61 -203 64 1 6 412 270 423 270 4 0 7 -90 7 -201z m4867 41 c60 -36 111 -143
120 -251 4 -46 10 -66 17 -63 7 3 63 -26 124 -63 299 -181 526 -395 675 -634
52 -84 56 -94 38 -97 -13 -2 -66 37 -163 120 -163 141 -329 276 -373 304 -16
10 -37 26 -45 36 -30 32 -272 190 -279 182 -4 -5 -16 -31 -26 -59 -10 -28 -36
-68 -60 -92 -69 -70 -123 -70 -191 2 -58 60 -85 137 -91 255 -6 113 7 187 49
270 50 101 130 136 205 90z m-5342 -355 c4 -113 5 -208 2 -211 -5 -6 -458 115
-469 125 -6 5 437 290 453 291 4 0 10 -92 14 -205z m-470 -346 c7 -123 13
-225 11 -226 -3 -3 -444 155 -464 166 -8 4 71 60 210 148 123 78 224 140 226
139 1 -2 9 -104 17 -227z m-525 -324 c-11 -124 -20 -236 -20 -247 0 -11 -6
-18 -13 -16 -7 2 -121 64 -253 138 l-239 135 50 3 c42 2 86 22 270 121 131 70
221 113 223 106 2 -7 -6 -115 -18 -240z m5552 24 c25 -13 48 -67 48 -112 0
-24 -8 -41 -30 -62 -36 -34 -46 -65 -59 -169 -15 -122 -55 -161 -116 -112 -30
24 -30 24 -30 133 0 140 28 239 85 295 39 39 66 46 102 27z m-6072 -56 c0 -14
-51 -387 -56 -410 -4 -21 -22 -9 -201 125 l-196 147 219 72 c237 77 234 76
234 66z m-495 -205 c-3 -13 -20 -112 -39 -221 -19 -109 -37 -201 -40 -204 -5
-5 -478 182 -533 211 -19 10 16 25 285 123 169 61 313 112 320 112 8 1 11 -7
7 -21z m-655 -244 c0 -14 -193 -354 -201 -354 -13 0 -419 204 -419 210 0 4
136 38 303 77 345 81 317 75 317 67z m-683 -121 c-2 -5 -35 -64 -72 -133 -37
-69 -74 -135 -81 -147 -14 -22 -16 -21 -159 89 -80 61 -143 113 -141 115 3 3
414 78 449 82 5 1 6 -2 4 -6z m8255 -479 c75 -39 234 -231 226 -273 -7 -38
-40 -18 -143 88 -89 91 -128 125 -194 168 -2 1 -1 9 2 18 8 20 69 20 109 -1z
m-678 -95 c19 -15 24 -24 16 -29 -9 -5 -7 -42 5 -146 22 -182 17 -360 -12
-424 -43 -97 -128 -128 -205 -75 -77 52 -110 157 -112 355 -1 146 14 203 71
270 45 53 82 69 154 70 43 0 63 -5 83 -21z m753 -230 c156 -75 254 -272 207
-418 -3 -9 -14 -1 -34 24 -28 36 -71 72 -209 178 -108 83 -152 186 -100 238
25 25 47 21 136 -22z m-137 -365 c0 -14 6 -24 14 -24 21 0 27 -13 36 -83 7
-48 15 -67 35 -84 35 -31 69 -29 95 4 l22 28 24 -28 c31 -36 47 -99 39 -151
-6 -37 -49 -146 -57 -146 -2 0 -4 24 -4 53 1 34 -5 62 -16 79 -10 15 -67 61
-127 103 -61 42 -117 86 -126 98 -40 57 6 223 52 186 7 -6 13 -22 13 -35z
m-985 -226 c35 -28 85 -132 85 -180 0 -98 -73 -158 -137 -113 -38 26 -61 159
-43 240 18 80 43 94 95 53z m1029 -83 l28 -23 -35 -52 c-19 -29 -49 -61 -66
-71 -20 -12 -34 -30 -38 -49 -3 -17 -10 -33 -15 -36 -18 -12 -2 79 27 145 18
43 26 76 23 102 l-3 37 25 -15 c14 -8 38 -25 54 -38z m-146 -47 l-13 -23 -3
22 c-2 12 3 32 10 45 l13 23 3 -22 c2 -12 -3 -32 -10 -45z m-116 41 c11 -6 32
-38 48 -72 22 -49 26 -67 19 -96 -12 -55 13 -132 47 -145 24 -9 59 17 75 55
l13 33 8 -34 c14 -71 -23 -231 -71 -304 l-20 -30 -10 28 c-6 15 -11 70 -11
122 0 105 -5 116 -78 153 -92 47 -134 150 -97 238 27 63 39 72 77 52z m-1685
-121 c6 -13 14 -31 17 -41 6 -19 -10 -68 -25 -78 -6 -3 10 -132 41 -335 35
-220 50 -344 46 -373 -11 -80 -62 -111 -186 -111 -140 0 -301 -37 -659 -149
-276 -87 -429 -120 -586 -128 l-120 -5 25 25 c14 13 196 159 405 322 276 216
379 303 378 316 -2 13 26 40 91 88 130 96 280 228 421 370 66 67 125 121 131
121 6 0 15 -10 21 -22z m-3575 -98 c43 -12 88 -61 88 -95 l0 -24 -36 24 c-48
32 -98 41 -154 26 -53 -14 -115 -70 -129 -115 -10 -34 -21 -106 -17 -106 2 0
30 16 62 35 44 26 69 35 103 35 75 0 133 -46 147 -118 8 -37 7 -37 -36 -15
-113 56 -247 4 -297 -116 -15 -36 -13 -142 3 -201 7 -23 6 -24 -9 -11 -32 25
-50 116 -44 215 6 94 44 262 72 316 34 66 107 131 170 151 29 10 36 10 77 -1z
m5137 -118 c17 -55 11 -67 -43 -94 -59 -28 -83 -73 -66 -123 19 -57 78 -73
135 -35 52 34 58 25 24 -42 -43 -85 -123 -208 -153 -237 l-25 -24 20 54 c22
58 36 171 25 213 -7 29 -51 56 -91 56 -93 0 -85 99 17 197 45 43 116 85 133
80 5 -2 16 -22 24 -45z m114 -54 c-15 -16 -36 -34 -45 -39 -15 -8 -16 -6 -7
19 6 18 6 44 1 69 l-9 41 44 -30 44 -30 -28 -30z m-118 -108 c-37 -38 -65 -46
-46 -13 7 13 60 47 81 52 2 1 -13 -17 -35 -39z m-5977 -243 c-464 -456 -972
-995 -1313 -1396 -65 -76 -81 -90 -83 -73 -8 51 46 119 463 592 447 506 666
734 848 885 103 85 322 245 336 245 3 0 -110 -114 -251 -253z m851 114 c20
-11 44 -27 52 -37 11 -13 4 -12 -31 6 -52 27 -140 31 -180 10 -23 -12 -24 -12
-10 4 32 40 109 47 169 17z m4826 -3 c3 -3 -11 -32 -32 -65 -21 -32 -49 -87
-63 -121 -21 -53 -28 -61 -45 -56 -11 4 -46 6 -79 6 l-59 -1 7 47 c3 26 18 72
34 102 36 73 90 103 174 98 32 -3 60 -7 63 -10z m110 -21 c-13 -21 -48 -50
-85 -72 -13 -8 5 20 53 83 5 6 18 12 28 12 18 0 18 -2 4 -23z m-4945 -59 c33
-17 51 -35 68 -68 20 -40 30 -100 17 -100 -3 0 -24 14 -47 30 -30 22 -52 30
-82 30 -56 -1 -85 -19 -110 -71 -17 -35 -27 -45 -50 -47 -16 -2 -32 0 -36 5
-15 15 28 155 58 186 55 59 112 70 182 35z m4377 -130 c4 -7 13 -30 18 -52 10
-37 9 -40 -27 -76 -25 -25 -38 -47 -38 -64 0 -15 -7 -41 -16 -58 -15 -29 -15
-30 0 -25 10 4 19 1 23 -9 3 -9 12 -13 22 -9 9 4 44 17 78 30 l63 24 -26 -52
c-39 -76 -98 -160 -136 -192 -47 -40 -132 -77 -168 -73 l-30 3 30 46 c38 58
70 148 77 218 6 53 6 53 -16 41 -20 -10 -25 -9 -38 9 -16 24 -64 29 -81 8 -6
-6 -14 -25 -17 -40 -13 -50 -86 -77 -115 -42 -11 13 -10 21 7 43 30 41 350
282 374 282 4 0 11 -6 16 -12z m108 -8 c8 -24 -11 -60 -30 -60 -15 0 -22 60
-8 73 13 13 32 7 38 -13z m317 -113 c-63 -134 -152 -210 -191 -163 -16 18 -3
44 51 106 22 24 42 56 45 71 4 21 17 31 66 51 34 13 64 23 65 22 2 -1 -14 -41
-36 -87z m-4797 65 c11 -9 29 -28 40 -41 20 -24 20 -24 0 -13 -36 19 -91 71
-75 71 8 0 24 -7 35 -17z m-79 -24 c-8 -39 -23 -58 -48 -58 -18 0 -18 1 -3 17
10 9 22 29 27 45 14 39 32 36 24 -4z m4714 -15 c-1 -17 -79 -93 -85 -83 -10
16 -49 12 -107 -10 l-53 -20 55 50 c40 36 57 46 67 39 9 -8 20 -5 39 10 25 20
84 29 84 14z m-4585 -84 c39 -20 93 -44 122 -53 32 -11 62 -29 78 -47 28 -34
30 -42 15 -70 -15 -28 -60 -24 -140 11 -72 32 -123 37 -165 18 -33 -15 -32
-28 6 -64 17 -16 44 -45 60 -65 l28 -36 -87 20 c-48 11 -98 27 -110 35 -13 9
-35 40 -48 70 -13 30 -40 72 -59 93 -37 42 -42 63 -21 92 13 17 16 16 62 -3
27 -12 66 -22 87 -23 33 -1 44 4 66 30 14 17 28 31 31 30 3 -1 37 -18 75 -38z
m3841 -127 c-68 -145 -63 -235 13 -235 23 0 42 10 71 38 47 46 52 32 15 -42
-31 -62 -67 -90 -180 -145 -100 -48 -189 -64 -183 -33 1 11 29 34 61 53 90 52
104 103 57 200 -27 56 -100 79 -100 32 0 -29 -44 -75 -63 -67 -22 8 -21 29 3
77 24 47 56 73 219 172 92 56 127 73 129 62 2 -8 -17 -58 -42 -112z m269 -3
c-10 -15 -25 -10 -19 6 4 8 10 12 15 9 5 -3 7 -10 4 -15z m-202 -121 c-20 -21
-41 -38 -45 -38 -11 0 -10 42 3 78 l11 31 34 -16 34 -17 -37 -38z m-3807 17
c30 -14 34 -19 27 -38 -4 -12 -7 -39 -6 -59 0 -21 -3 -38 -8 -38 -10 0 -14 8
-23 51 -3 15 -27 50 -53 79 l-46 52 36 -16 c20 -9 53 -23 73 -31z m3324 38 c0
-5 -23 -42 -51 -83 -47 -68 -52 -72 -32 -24 5 15 1 16 -33 10 -54 -10 -87 -36
-102 -82 -57 -166 158 -270 248 -121 11 18 20 25 20 16 0 -27 -58 -104 -102
-136 -89 -63 -258 -129 -290 -112 -29 15 -21 42 23 84 42 41 69 89 69 124 0
19 -8 21 -97 23 l-98 3 95 95 c74 74 114 105 178 138 110 57 172 81 172 65z
m-3021 -53 c35 -6 85 -22 111 -35 44 -22 110 -85 110 -105 0 -5 -16 -14 -36
-19 -31 -9 -41 -7 -74 15 -42 28 -151 51 -192 41 -42 -11 -59 -35 -56 -76 3
-32 8 -38 46 -56 87 -40 35 -66 -139 -67 -68 -1 -143 4 -165 11 -49 13 -92 45
-103 75 -10 24 5 62 27 71 8 3 68 -9 134 -26 100 -27 121 -30 129 -18 21 32
20 58 -1 87 -38 51 -10 88 75 103 59 10 65 10 134 -1z m2522 -107 c-5 -10 -33
-43 -63 -74 -29 -30 -44 -45 -34 -32 30 36 12 28 -67 -31 -39 -29 -97 -67
-128 -85 -93 -52 -174 -36 -140 27 34 63 255 186 371 205 59 10 71 8 61 -10z
m-2453 -82 c37 -19 40 -24 33 -44 -13 -34 -2 -74 30 -108 27 -29 32 -31 94
-27 69 3 91 -13 31 -23 -36 -6 -84 -32 -101 -56 -9 -12 -17 -11 -49 2 -63 27
-149 37 -217 26 -66 -11 -99 -3 -99 25 0 19 40 34 91 34 50 0 104 22 118 48
28 52 2 114 -54 128 -14 3 -25 11 -25 16 0 17 103 2 148 -21z m549 -9 c21 -11
46 -29 56 -40 18 -19 17 -20 -80 -24 -111 -4 -161 -24 -177 -71 -8 -22 -6 -31
11 -49 15 -16 20 -31 16 -50 -3 -18 1 -32 16 -47 25 -25 41 -26 100 -5 24 8
51 12 59 9 23 -9 -23 -39 -114 -75 -137 -55 -270 -50 -308 12 -17 29 22 71 80
85 53 13 84 42 84 77 -1 50 -52 78 -128 69 -46 -5 -51 -3 -67 21 -24 36 -10
50 68 71 179 48 311 54 384 17z m1394 1 c-5 -10 -26 -34 -46 -53 -60 -57 -103
-138 -117 -218 -6 -39 -9 -75 -5 -79 7 -6 112 21 160 42 32 13 18 -15 -33 -70
-78 -82 -180 -117 -282 -96 l-53 11 65 68 c70 73 128 171 109 183 -6 3 -51 12
-100 20 -49 7 -89 16 -89 20 0 13 119 97 178 125 62 30 164 62 200 63 19 1 21
-2 13 -16z m-431 -43 c17 -11 18 -9 -45 -46 -27 -15 -85 -63 -127 -106 -66
-67 -78 -83 -78 -112 0 -43 12 -49 125 -56 l89 -5 -66 -53 c-82 -65 -140 -91
-199 -92 -43 0 -109 16 -109 27 0 3 22 25 49 49 53 47 95 122 107 188 7 38 6
38 -22 33 -16 -3 -51 -9 -79 -12 l-50 -7 55 57 c64 66 125 111 178 130 43 16
150 19 172 5z m-486 -6 c25 -4 46 -10 46 -13 0 -4 -24 -15 -52 -26 -91 -31
-164 -72 -196 -110 -18 -19 -32 -39 -32 -44 0 -17 -98 -22 -135 -7 -42 18 -44
34 -10 92 27 46 73 79 138 100 46 14 166 18 241 8z m-451 -69 c12 -5 12 -12 0
-49 -13 -39 -19 -44 -51 -50 -20 -3 -47 -9 -59 -12 -20 -6 -23 -3 -23 24 0 16
-7 35 -15 42 -20 17 -9 27 40 39 48 11 88 13 108 6z m910 -58 c-7 -43 9 -55
88 -68 35 -6 67 -14 72 -18 4 -4 -7 -26 -25 -49 -31 -40 -33 -41 -41 -20 -4
12 -10 25 -13 28 -3 3 -56 7 -117 10 l-112 5 71 73 c40 39 74 72 77 72 3 0 3
-15 0 -33z m807 -43 c35 -19 78 -17 129 6 24 11 46 18 48 16 3 -3 -20 -38 -51
-80 -59 -80 -98 -107 -181 -126 -100 -22 -175 -12 -175 26 0 7 42 62 93 122
l92 109 10 -30 c6 -16 22 -35 35 -43z m5334 -46 c-12 -81 -354 -3152 -354
-3176 l0 -28 471 54 c259 29 474 50 477 47 5 -5 -105 -1026 -111 -1031 -2 -2
-1502 -172 -1503 -170 -2 1 478 4270 480 4273 2 2 492 60 523 62 19 1 21 -3
17 -31z m-6745 -20 c62 -76 57 -73 110 -72 l50 0 -32 -24 c-91 -69 -232 -104
-338 -84 -117 22 -119 66 -5 94 42 10 78 26 95 42 23 22 83 55 103 56 4 0 12
-6 17 -12z m131 2 c11 -7 7 -10 -17 -10 -18 0 -33 5 -33 10 0 13 30 13 50 0z
m160 -18 c0 -13 -56 -89 -72 -98 -7 -4 -2 4 11 19 17 19 22 34 19 56 -4 27 -2
31 19 31 13 0 23 -4 23 -8z m5020 -107 c0 -9 54 -952 120 -2097 66 -1145 119
-2082 118 -2083 -7 -6 -561 -66 -566 -61 -3 3 -16 191 -28 417 -13 227 -25
413 -26 414 -7 4 -704 -77 -709 -83 -3 -4 -59 -201 -124 -437 l-117 -430 -286
-33 c-157 -17 -286 -31 -287 -29 -1 1 229 839 511 1862 283 1023 553 2002 600
2175 47 173 87 316 88 317 1 2 123 16 272 33 268 30 412 46 427 49 4 0 7 -6 7
-14z m-1380 -170 c0 -25 -110 -1009 -113 -1011 -1 -1 -121 -16 -265 -32 -145
-16 -267 -34 -271 -38 -5 -5 -88 -722 -185 -1594 -97 -872 -179 -1597 -182
-1611 l-5 -25 -267 -31 c-147 -16 -268 -29 -270 -28 -2 2 78 729 178 1615 100
887 180 1614 178 1616 -2 2 -122 -11 -267 -27 -144 -17 -265 -29 -267 -26 -2
2 22 235 54 518 l58 514 24 4 c41 6 1553 179 1578 180 17 1 22 -4 22 -24z
m-1800 -196 c0 -32 -111 -1013 -115 -1018 -2 -2 -79 -12 -171 -22 -92 -11
-169 -20 -170 -22 -5 -5 -248 -2187 -244 -2190 3 -2 79 4 169 14 90 11 166 18
167 16 5 -5 -111 -1025 -117 -1031 -5 -6 -1222 -145 -1227 -141 -3 2 110 1027
113 1033 1 1 78 12 171 23 92 11 170 22 172 24 4 4 252 2188 249 2192 -1 1
-78 -8 -170 -19 -93 -11 -170 -18 -171 -16 -4 4 112 1029 116 1034 2 1 276 34
608 72 333 39 608 70 613 71 4 1 7 -8 7 -20z m-1640 -181 c0 -15 -112 -1022
-114 -1024 0 -1 -233 -28 -517 -60 l-517 -58 -50 -105 -51 -106 -100 -905
-101 -905 26 -85 c14 -47 27 -86 29 -88 3 -3 557 56 592 64 17 3 35 29 69 97
l47 92 27 240 c15 132 26 243 24 246 -2 3 -78 -3 -169 -14 -91 -11 -168 -18
-170 -15 -4 3 103 970 108 973 6 5 858 97 861 94 2 -2 -45 -429 -104 -949
l-107 -945 -212 -407 c-117 -224 -218 -411 -224 -416 -7 -5 -244 -35 -527 -66
-283 -32 -536 -60 -561 -63 l-46 -5 -127 376 -128 376 151 1346 151 1347 218
416 217 416 625 71 c704 81 680 79 680 62z m-1912 -240 c-3 -18 -29 -249 -59
-513 -29 -264 -57 -483 -61 -486 -5 -3 -82 -14 -171 -23 -89 -10 -164 -19
-165 -21 -5 -5 -251 -2189 -247 -2193 1 -1 78 6 171 17 92 11 169 19 170 18 3
-4 -115 -1030 -119 -1034 -7 -7 -1220 -143 -1226 -138 -4 5 108 1027 113 1032
1 2 78 11 170 22 92 10 169 20 171 22 8 8 248 2180 242 2186 -4 3 -79 -2 -168
-11 -88 -10 -162 -16 -165 -14 -5 5 110 1026 116 1031 7 6 1133 135 1189 136
l44 1 -5 -32z m-1706 -549 l128 -374 -151 -1345 -151 -1345 -216 -415 c-118
-228 -216 -416 -216 -417 -2 -3 -1429 -163 -1432 -160 -2 1 105 959 236 2127
132 1169 240 2130 240 2135 0 9 1396 176 1425 171 6 -2 67 -171 137 -377z"/>
<path d="M20697 12050 c-47 -162 -297 -1134 -293 -1138 3 -2 82 4 177 14 128
14 173 22 177 33 5 13 -36 1114 -42 1136 -2 6 -10 -15 -19 -45z"/>
<path d="M11930 11273 c-162 -19 -296 -36 -298 -38 -5 -4 -251 -2189 -248
-2192 3 -3 608 66 611 69 2 2 24 45 50 97 l47 94 103 914 103 914 -27 86 c-15
48 -31 87 -36 88 -6 1 -143 -13 -305 -32z"/>
</g>
</svg>
