<?xml version="1.0" encoding="UTF-8"?>
<!DOCTYPE svg PUBLIC "-//W3C//DTD SVG 1.1//EN" "http://www.w3.org/Graphics/SVG/1.1/DTD/svg11.dtd">
<svg xmlns="http://www.w3.org/2000/svg" version="1.1" width="2100px" height="2100px"  style="shape-rendering:geometricPrecision; text-rendering:geometricPrecision; image-rendering:optimizeQuality; fill-rule:evenodd; clip-rule:evenodd" xmlns:xlink="http://www.w3.org/1999/xlink">
<g><path style="opacity:0.989" fill="#fefefe" d="M 1458.5,617.5 C 1470.87,653.762 1483.37,690.095 1496,726.5C 1503.11,745.395 1510.78,764.061 1519,782.5C 1537.94,752.855 1560.1,725.688 1585.5,701C 1592.38,695.142 1600.04,690.476 1608.5,687C 1625.61,681.463 1642.61,675.629 1659.5,669.5C 1667.28,711.221 1676.78,752.554 1688,793.5C 1723.76,758.022 1765.26,731.188 1812.5,713C 1832.7,705.324 1853.03,698.157 1873.5,691.5C 1873.07,740.872 1874.24,790.206 1877,839.5C 1877.2,841.256 1877.7,842.922 1878.5,844.5C 1932.81,812.589 1991.48,798.589 2054.5,802.5C 2054.83,804.167 2055.17,805.833 2055.5,807.5C 2050.07,862.81 2045.24,918.144 2041,973.5C 2078.35,965.094 2116.18,960.094 2154.5,958.5C 2164.57,958.582 2174.57,959.415 2184.5,961C 2202.26,964.518 2219.93,968.351 2237.5,972.5C 2215.32,1033.17 2191.82,1093.17 2167,1152.5C 2223.86,1167.4 2280.69,1182.4 2337.5,1197.5C 2304.12,1259.89 2261.79,1315.56 2210.5,1364.5C 2251.83,1394.17 2293.17,1423.83 2334.5,1453.5C 2326.13,1466.7 2317.97,1480.03 2310,1493.5C 2297.98,1506.92 2284.15,1518.09 2268.5,1527C 2242.14,1541.07 2214.81,1552.9 2186.5,1562.5C 2209.52,1591.69 2232.36,1621.02 2255,1650.5C 2255.48,1651.45 2255.65,1652.45 2255.5,1653.5C 2228.04,1663.1 2200.38,1672.1 2172.5,1680.5C 2185.46,1696.79 2198.79,1712.79 2212.5,1728.5C 2276.01,1771.42 2339.34,1814.59 2402.5,1858C 2384.23,1861.92 2365.89,1865.59 2347.5,1869C 2374.83,1867.39 2402.16,1865.56 2429.5,1863.5C 2414.46,2060.13 2399.79,2256.79 2385.5,2453.5C 1921.2,2503.13 1456.87,2552.46 992.5,2601.5C 1009.83,2411.17 1027.17,2220.83 1044.5,2030.5C 1075.81,2027.86 1107.14,2025.53 1138.5,2023.5C 1137.28,2019.76 1136.11,2016.09 1135,2012.5C 1153.8,1996.71 1172.3,1980.54 1190.5,1964C 1181.46,1957.16 1172.46,1950.32 1163.5,1943.5C 1192.7,1923.14 1222.03,1902.97 1251.5,1883C 1217.98,1880.97 1185.32,1874.64 1153.5,1864C 1083.8,1837.97 1038.64,1789.13 1018,1717.5C 922.578,1664.62 886.911,1584.62 911,1477.5C 916.417,1457.25 923.417,1437.58 932,1418.5C 932.016,1386.82 943.683,1360.48 967,1339.5C 965.583,1285.83 963.75,1232.16 961.5,1178.5C 1018.87,1174.29 1076.21,1169.63 1133.5,1164.5C 1144.63,1151.2 1156.96,1139.04 1170.5,1128C 1184.23,1118.47 1199.23,1111.64 1215.5,1107.5C 1179.9,1014.17 1174.74,919.166 1200,822.5C 1206.89,798.165 1215.56,774.498 1226,751.5C 1246.93,711.582 1268.26,671.915 1290,632.5C 1307.26,680.953 1324.93,729.287 1343,777.5C 1356.19,743.782 1372.52,711.782 1392,681.5C 1398.43,673.067 1405.6,665.234 1413.5,658C 1428.95,644.951 1443.95,631.451 1458.5,617.5 Z"/></g>
<g><path style="opacity:1" fill="#010101" d="M 1999.5,845.5 C 2003.17,845.5 2006.83,845.5 2010.5,845.5C 2010.5,847.167 2010.5,848.833 2010.5,850.5C 2005.77,908.24 2000.43,965.906 1994.5,1023.5C 1995.17,1023.83 1995.83,1024.17 1996.5,1024.5C 2040.34,1013.83 2084.68,1005.66 2129.5,1000C 2147.23,999.009 2164.9,999.509 2182.5,1001.5C 2163.89,1054.05 2143.06,1105.72 2120,1156.5C 2115.96,1164.08 2111.79,1171.58 2107.5,1179C 2158.89,1193.1 2210.55,1206.43 2262.5,1219C 2266.65,1220.2 2270.65,1221.7 2274.5,1223.5C 2239.48,1278.79 2196.14,1326.79 2144.5,1367.5C 2188.44,1399.48 2232.78,1430.98 2277.5,1462C 2278.57,1462.74 2279.24,1463.74 2279.5,1465C 2278.08,1468.09 2276.24,1470.93 2274,1473.5C 2259.09,1486.05 2242.59,1496.22 2224.5,1504C 2189.67,1518.61 2154,1530.61 2117.5,1540C 2141.69,1570.69 2165.69,1601.52 2189.5,1632.5C 2183.74,1635.28 2177.74,1637.44 2171.5,1639C 2143.29,1645.05 2114.96,1646.05 2086.5,1642C 2099.88,1657.04 2112.88,1672.37 2125.5,1688C 2111.17,1688.33 2096.83,1688.67 2082.5,1689C 2155.01,1738.09 2227.34,1787.42 2299.5,1837C 2278.63,1840.72 2257.96,1845.05 2237.5,1850C 2254.64,1871.31 2271.98,1892.48 2289.5,1913.5C 2292.17,1913.83 2294.83,1914.17 2297.5,1914.5C 2326.84,1912.17 2356.17,1909.83 2385.5,1907.5C 2372.72,2077.49 2360.05,2247.49 2347.5,2417.5C 1910.79,2463.46 1474.13,2509.79 1037.5,2556.5C 1051.93,2393.48 1066.59,2230.48 1081.5,2067.5C 1122.57,2064.9 1163.57,2061.57 1204.5,2057.5C 1198.04,2046.08 1191.71,2034.58 1185.5,2023C 1208.37,2002.46 1231.54,1982.29 1255,1962.5C 1255.51,1961 1255.01,1959.84 1253.5,1959C 1246.69,1954.36 1240.03,1949.53 1233.5,1944.5C 1290.97,1905.53 1348.3,1866.36 1405.5,1827C 1391.16,1829.27 1376.83,1831.93 1362.5,1835C 1315.01,1843.04 1267.34,1844.38 1219.5,1839C 1181.22,1834.13 1146.55,1820.47 1115.5,1798C 1080.81,1769.15 1059.65,1732.31 1052,1687.5C 960.755,1646.87 927.422,1577.87 952,1480.5C 957.055,1462.06 964.055,1444.39 973,1427.5C 970.522,1398.62 981.355,1376.12 1005.5,1360C 1015.83,1353.35 1026.83,1348.01 1038.5,1344C 1034.02,1329.88 1029.52,1315.71 1025,1301.5C 1018.92,1300.52 1012.76,1300.19 1006.5,1300.5C 1005.58,1272.16 1004.58,1243.83 1003.5,1215.5C 1055.19,1211.72 1106.86,1207.55 1158.5,1203C 1172.66,1174.5 1195,1155.83 1225.5,1147C 1238.24,1144.79 1250.9,1145.12 1263.5,1148C 1269.87,1150.24 1276.2,1152.24 1282.5,1154C 1226.02,1054.05 1211.19,948.218 1238,836.5C 1248.55,799.735 1263.22,764.735 1282,731.5C 1294.87,766.771 1308.54,801.771 1323,836.5C 1329.71,852.262 1337.71,867.262 1347,881.5C 1361.71,838.717 1378.37,796.717 1397,755.5C 1406.15,735.856 1416.82,717.19 1429,699.5C 1432.17,696.333 1435.33,693.167 1438.5,690C 1439.74,689.544 1440.58,690.044 1441,691.5C 1457.53,742.886 1478.19,792.553 1503,840.5C 1506.9,847.072 1511.57,853.072 1517,858.5C 1538.19,824.787 1560.85,792.12 1585,760.5C 1595.21,747.294 1607.04,735.794 1620.5,726C 1623.31,724.451 1626.31,723.618 1629.5,723.5C 1637.61,766.9 1649.44,809.233 1665,850.5C 1667.33,855.167 1669.67,859.833 1672,864.5C 1673.02,865.687 1674.19,866.687 1675.5,867.5C 1716.64,813.026 1768.97,773.359 1832.5,748.5C 1833.95,781.834 1835.45,815.167 1837,848.5C 1838.42,865.238 1840.42,881.905 1843,898.5C 1843.95,904.181 1845.78,909.514 1848.5,914.5C 1877.22,890.992 1908.89,872.159 1943.5,858C 1961.58,851.154 1980.25,846.987 1999.5,845.5 Z"/></g>
<g><path style="opacity:1" fill="#7a6f69" d="M 1534.5,983.5 C 1530.75,972.903 1524.75,963.737 1516.5,956C 1508.74,952.415 1503.58,954.582 1501,962.5C 1493.07,960.141 1488.41,963.141 1487,971.5C 1487.39,979.177 1484.56,985.177 1478.5,989.5C 1478.51,985.337 1478.34,981.004 1478,976.5C 1473.91,970.882 1468.41,969.049 1461.5,971C 1457.4,973.36 1454.9,976.86 1454,981.5C 1453.83,989.853 1453.33,998.187 1452.5,1006.5C 1412.74,947.605 1401.57,883.605 1419,814.5C 1421.81,804.895 1425.31,795.562 1429.5,786.5C 1429.38,785.893 1429.04,785.56 1428.5,785.5C 1432.78,779.377 1437.28,773.377 1442,767.5C 1441,772.832 1439.67,778.165 1438,783.5C 1437.13,792.614 1437.8,801.614 1440,810.5C 1447.68,835.522 1458.34,859.189 1472,881.5C 1471.63,871.977 1469.97,862.643 1467,853.5C 1466.03,844.005 1466.36,834.672 1468,825.5C 1470.26,841.521 1473.92,857.188 1479,872.5C 1496.68,911.53 1516.68,949.197 1539,985.5C 1539.67,986.167 1539.67,986.833 1539,987.5C 1537.33,986.267 1535.83,984.933 1534.5,983.5 Z"/></g>
<g><path style="opacity:1" fill="#b5ada9" d="M 1610.5,806.5 C 1603.55,819.834 1598.05,833.834 1594,848.5C 1584.57,887.483 1582.9,926.817 1589,966.5C 1592.31,987.558 1596.81,1008.22 1602.5,1028.5C 1602.66,1030.53 1602.5,1032.53 1602,1034.5C 1588.94,1004.05 1575.61,973.716 1562,943.5C 1561.67,960.5 1561.33,977.5 1561,994.5C 1531.14,934.481 1535.47,877.148 1574,822.5C 1587.4,803.268 1603.9,787.268 1623.5,774.5C 1624.52,775.002 1624.69,775.668 1624,776.5C 1615.96,784.912 1611.46,794.912 1610.5,806.5 Z"/></g>
<g><path style="opacity:1" fill="#b4aca8" d="M 1428.5,785.5 C 1429.04,785.56 1429.38,785.893 1429.5,786.5C 1425.31,795.562 1421.81,804.895 1419,814.5C 1401.57,883.605 1412.74,947.605 1452.5,1006.5C 1453.33,998.187 1453.83,989.853 1454,981.5C 1454.9,976.86 1457.4,973.36 1461.5,971C 1468.41,969.049 1473.91,970.882 1478,976.5C 1478.34,981.004 1478.51,985.337 1478.5,989.5C 1484.56,985.177 1487.39,979.177 1487,971.5C 1488.41,963.141 1493.07,960.141 1501,962.5C 1503.58,954.582 1508.74,952.415 1516.5,956C 1524.75,963.737 1530.75,972.903 1534.5,983.5C 1526.09,977.538 1517.93,971.205 1510,964.5C 1517.9,981.633 1526.4,998.633 1535.5,1015.5C 1534.09,1016.62 1532.59,1017.62 1531,1018.5C 1520.61,1004.44 1510.61,990.11 1501,975.5C 1500.35,974.304 1499.85,974.304 1499.5,975.5C 1508.62,1005.31 1516.78,1035.31 1524,1065.5C 1505,1038.17 1486,1010.83 1467,983.5C 1474.64,1012.07 1481.98,1040.74 1489,1069.5C 1470.31,1047.65 1451.81,1025.65 1433.5,1003.5C 1433.17,1004.5 1432.83,1005.5 1432.5,1006.5C 1434.29,1020.32 1435.96,1034.15 1437.5,1048C 1437.17,1049.5 1436.83,1051 1436.5,1052.5C 1427.52,1046.83 1418.85,1040.83 1410.5,1034.5C 1402.04,1016.02 1396.38,996.684 1393.5,976.5C 1396.22,978.902 1398.72,981.568 1401,984.5C 1382.76,914.314 1391.93,847.981 1428.5,785.5 Z"/></g>
<g><path style="opacity:1" fill="#b4aca8" d="M 1800.5,812.5 C 1786.89,823.941 1772.55,834.441 1757.5,844C 1734.75,864.992 1719.25,890.492 1711,920.5C 1705.85,941.71 1702.35,963.043 1700.5,984.5C 1697.8,970.577 1696.97,956.577 1698,942.5C 1686.47,972.783 1680.47,1004.12 1680,1036.5C 1667.31,982.052 1674.31,930.385 1701,881.5C 1725.11,843.906 1758.27,817.572 1800.5,802.5C 1801.67,805.837 1801.67,809.17 1800.5,812.5 Z"/></g>
<g><path style="opacity:1" fill="#7a6f69" d="M 1610.5,806.5 C 1610.62,827.56 1613.46,848.226 1619,868.5C 1619.27,858.152 1619.77,847.818 1620.5,837.5C 1620.83,836.167 1621.17,834.833 1621.5,833.5C 1622.74,834.246 1624.07,834.579 1625.5,834.5C 1625.73,845.433 1627.57,856.1 1631,866.5C 1641.18,898.036 1652.34,929.203 1664.5,960C 1663.83,961.847 1662.5,963.014 1660.5,963.5C 1657.67,959.167 1654.83,954.833 1652,950.5C 1657.07,969.712 1662.57,988.879 1668.5,1008C 1668.39,1009.72 1667.89,1009.89 1667,1008.5C 1655.89,987.277 1644.56,966.277 1633,945.5C 1634.63,967.491 1636.47,989.491 1638.5,1011.5C 1636.5,1011.5 1634.5,1011.5 1632.5,1011.5C 1631.21,1000.79 1628.38,990.461 1624,980.5C 1617.38,964.632 1610.38,948.965 1603,933.5C 1602.5,965.165 1602.33,996.832 1602.5,1028.5C 1596.81,1008.22 1592.31,987.558 1589,966.5C 1582.9,926.817 1584.57,887.483 1594,848.5C 1598.05,833.834 1603.55,819.834 1610.5,806.5 Z"/></g>
<g><path style="opacity:1" fill="#7a6f69" d="M 1800.5,812.5 C 1794.55,858.312 1782.38,902.312 1764,944.5C 1763.83,943.833 1763.67,943.167 1763.5,942.5C 1765.52,934.245 1766.69,925.912 1767,917.5C 1750.94,943.662 1737.94,971.329 1728,1000.5C 1727.67,978.5 1727.33,956.5 1727,934.5C 1712.8,954.227 1705.47,976.227 1705,1000.5C 1703.8,995.043 1702.3,989.71 1700.5,984.5C 1702.35,963.043 1705.85,941.71 1711,920.5C 1719.25,890.492 1734.75,864.992 1757.5,844C 1772.55,834.441 1786.89,823.941 1800.5,812.5 Z"/></g>
<g><path style="opacity:1" fill="#b4aca8" d="M 1297.5,854.5 C 1307.32,943.272 1324.32,1030.6 1348.5,1116.5C 1326.06,1088.3 1309.9,1056.63 1300,1021.5C 1281.18,954.643 1277.51,886.976 1289,818.5C 1290.87,830.737 1293.71,842.737 1297.5,854.5 Z"/></g>
<g><path style="opacity:1" fill="#7a7a7a" d="M 1999.5,845.5 C 2003.3,844.517 2007.3,844.183 2011.5,844.5C 2011.79,846.735 2011.46,848.735 2010.5,850.5C 2010.5,848.833 2010.5,847.167 2010.5,845.5C 2006.83,845.5 2003.17,845.5 1999.5,845.5 Z"/></g>
<g><path style="opacity:1" fill="#7a6f69" d="M 1297.5,854.5 C 1317.57,891.412 1341.41,925.745 1369,957.5C 1369.33,954.134 1369,950.801 1368,947.5C 1362.78,937.137 1362.11,926.47 1366,915.5C 1368.33,925.167 1370.67,934.833 1373,944.5C 1379.11,955.732 1385.94,966.399 1393.5,976.5C 1396.38,996.684 1402.04,1016.02 1410.5,1034.5C 1408.22,1033.39 1406.05,1032.06 1404,1030.5C 1403.83,1030.83 1403.67,1031.17 1403.5,1031.5C 1413.86,1058.77 1423.7,1086.1 1433,1113.5C 1407.67,1083.5 1382.33,1053.5 1357,1023.5C 1371.02,1060.06 1385.52,1096.56 1400.5,1133C 1400.39,1134.72 1399.89,1134.89 1399,1133.5C 1378,1102.83 1357,1072.17 1336,1041.5C 1347.3,1074.9 1359.14,1108.23 1371.5,1141.5C 1371.33,1141.83 1371.17,1142.17 1371,1142.5C 1362.92,1134.26 1355.42,1125.59 1348.5,1116.5C 1324.32,1030.6 1307.32,943.272 1297.5,854.5 Z"/></g>
<g><path style="opacity:1" fill="#7a6f69" d="M 1854.5,988.5 C 1862.06,970.086 1873.39,954.253 1888.5,941C 1907.32,927.416 1926.99,915.082 1947.5,904C 1952.93,900.631 1957.93,896.798 1962.5,892.5C 1965.34,891.365 1968.34,890.365 1971.5,889.5C 1971.83,889.833 1972.17,890.167 1972.5,890.5C 1945.61,946.622 1918.44,1002.62 1891,1058.5C 1894.19,1041.72 1898.03,1025.06 1902.5,1008.5C 1900.41,1008.32 1898.41,1008.65 1896.5,1009.5C 1896.17,1008.67 1895.83,1007.83 1895.5,1007C 1896.65,1002.77 1897.98,998.604 1899.5,994.5C 1899.17,994.167 1898.83,993.833 1898.5,993.5C 1875.85,1017.98 1853.02,1042.32 1830,1066.5C 1836,1038.81 1845.17,1012.14 1857.5,986.5C 1857.33,986.167 1857.17,985.833 1857,985.5C 1856.15,986.571 1855.31,987.571 1854.5,988.5 Z"/></g>
<g><path style="opacity:1" fill="#b4aca8" d="M 1962.5,892.5 C 1957.93,896.798 1952.93,900.631 1947.5,904C 1926.99,915.082 1907.32,927.416 1888.5,941C 1873.39,954.253 1862.06,970.086 1854.5,988.5C 1845.57,998.604 1836.4,1008.6 1827,1018.5C 1829.67,1010.5 1832.33,1002.5 1835,994.5C 1818.28,1012.22 1804.28,1031.89 1793,1053.5C 1790.67,1060.5 1788.33,1067.5 1786,1074.5C 1784.05,1051.27 1788.38,1029.27 1799,1008.5C 1816.58,975.249 1841.42,948.749 1873.5,929C 1901.34,912.413 1931.01,900.247 1962.5,892.5 Z"/></g>
<g><path style="opacity:1" fill="#b4aca8" d="M 2093.5,1045.5 C 2101.17,1045.33 2108.84,1045.5 2116.5,1046C 2057.17,1064.67 2001.17,1090.34 1948.5,1123C 1947.56,1123.69 1946.9,1123.53 1946.5,1122.5C 1960.33,1110.17 1974.33,1098 1988.5,1086C 1961,1092.89 1933.66,1100.72 1906.5,1109.5C 1909.62,1104.84 1913.62,1100.34 1918.5,1096C 1945.17,1076.32 1974.84,1062.98 2007.5,1056C 2035.81,1049.54 2064.48,1046.04 2093.5,1045.5 Z"/></g>
<g><path style="opacity:1" fill="#7a6f69" d="M 2093.5,1045.5 C 2104.37,1044.17 2115.37,1044.34 2126.5,1046C 2088.31,1084.53 2049.81,1122.69 2011,1160.5C 2017.55,1144.04 2024.72,1127.71 2032.5,1111.5C 1996.32,1121.72 1960.15,1132.72 1924,1144.5C 1923.5,1144.33 1923,1144.17 1922.5,1144C 1930.37,1136.63 1938.37,1129.46 1946.5,1122.5C 1946.9,1123.53 1947.56,1123.69 1948.5,1123C 2001.17,1090.34 2057.17,1064.67 2116.5,1046C 2108.84,1045.5 2101.17,1045.33 2093.5,1045.5 Z"/></g>
<g><path style="opacity:1" fill="#b5ada9" d="M 2004.5,1380.5 C 1977.31,1302.43 1930.81,1238.43 1865,1188.5C 1864.6,1188.73 1864.43,1189.06 1864.5,1189.5C 1855.97,1173.57 1842.64,1165.9 1824.5,1166.5C 1825.61,1165.71 1826.94,1165.21 1828.5,1165C 1820.69,1159.76 1812.36,1155.6 1803.5,1152.5C 1802.54,1151.34 1801.54,1150.17 1800.5,1149C 1802.84,1141.67 1800.5,1136.34 1793.5,1133C 1790.41,1132.35 1787.41,1132.68 1784.5,1134C 1782.31,1136.19 1780.14,1138.36 1778,1140.5C 1776.86,1140.01 1775.69,1139.68 1774.5,1139.5C 1706.42,1114.13 1636.42,1107.63 1564.5,1120C 1536.62,1125.05 1509.62,1133.05 1483.5,1144C 1464.18,1153.5 1444.51,1162.16 1424.5,1170C 1418.56,1171.16 1412.56,1171.66 1406.5,1171.5C 1450.82,1122.66 1505.82,1092.49 1571.5,1081C 1662.48,1070.26 1748.48,1086.26 1829.5,1129C 1927.89,1184.62 1986.23,1268.46 2004.5,1380.5 Z"/></g>
<g><path style="opacity:1" fill="#413d3a" d="M 1774.5,1139.5 C 1772.95,1151.27 1777.95,1158.27 1789.5,1160.5C 1795.78,1160.37 1800.44,1157.7 1803.5,1152.5C 1812.36,1155.6 1820.69,1159.76 1828.5,1165C 1826.94,1165.21 1825.61,1165.71 1824.5,1166.5C 1811.35,1170.79 1806.52,1179.79 1810,1193.5C 1816.9,1215.42 1831.73,1225.92 1854.5,1225C 1865.99,1219.85 1870.49,1211.01 1868,1198.5C 1867.12,1195.35 1865.95,1192.35 1864.5,1189.5C 1864.43,1189.06 1864.6,1188.73 1865,1188.5C 1930.81,1238.43 1977.31,1302.43 2004.5,1380.5C 2006.39,1390.74 2007.22,1401.08 2007,1411.5C 1993.32,1373.48 1977.99,1336.15 1961,1299.5C 1954.83,1288 1946,1279.17 1934.5,1273C 1852.78,1234.65 1767.11,1209.82 1677.5,1198.5C 1677.67,1192.49 1677.5,1186.49 1677,1180.5C 1674.93,1176.05 1671.43,1174.05 1666.5,1174.5C 1662.7,1174.49 1659.2,1175.49 1656,1177.5C 1655.79,1180.76 1655.29,1183.92 1654.5,1187C 1641.5,1187.9 1628.5,1188.24 1615.5,1188C 1611.45,1184.64 1606.78,1182.98 1601.5,1183C 1536.14,1181.95 1470.81,1182.78 1405.5,1185.5C 1402.17,1185.17 1398.83,1184.83 1395.5,1184.5C 1398.84,1179.83 1402.51,1175.5 1406.5,1171.5C 1412.56,1171.66 1418.56,1171.16 1424.5,1170C 1444.51,1162.16 1464.18,1153.5 1483.5,1144C 1509.62,1133.05 1536.62,1125.05 1564.5,1120C 1636.42,1107.63 1706.42,1114.13 1774.5,1139.5 Z"/></g>
<g><path style="opacity:1" fill="#f0f0f0" d="M 1803.5,1152.5 C 1800.44,1157.7 1795.78,1160.37 1789.5,1160.5C 1777.95,1158.27 1772.95,1151.27 1774.5,1139.5C 1775.69,1139.68 1776.86,1140.01 1778,1140.5C 1780.14,1138.36 1782.31,1136.19 1784.5,1134C 1787.41,1132.68 1790.41,1132.35 1793.5,1133C 1800.5,1136.34 1802.84,1141.67 1800.5,1149C 1801.54,1150.17 1802.54,1151.34 1803.5,1152.5 Z"/></g>
<g><path style="opacity:1" fill="#2dd8c8" d="M 1369.5,1157.5 C 1368.6,1156.79 1368.26,1155.79 1368.5,1154.5C 1368.34,1152.47 1368.5,1150.47 1369,1148.5C 1370.7,1151.4 1370.86,1154.4 1369.5,1157.5 Z"/></g>
<g><path style="opacity:1" fill="#197c73" d="M 1368.5,1154.5 C 1368.26,1155.79 1368.6,1156.79 1369.5,1157.5C 1369,1159.48 1368.5,1161.48 1368,1163.5C 1367.2,1160.3 1367.36,1157.3 1368.5,1154.5 Z"/></g>
<g><path style="opacity:1" fill="#f2f2f2" d="M 1824.5,1166.5 C 1842.64,1165.9 1855.97,1173.57 1864.5,1189.5C 1865.95,1192.35 1867.12,1195.35 1868,1198.5C 1870.49,1211.01 1865.99,1219.85 1854.5,1225C 1831.73,1225.92 1816.9,1215.42 1810,1193.5C 1806.52,1179.79 1811.35,1170.79 1824.5,1166.5 Z"/></g>
<g><path style="opacity:1" fill="#3f3c39" d="M 1300.5,1181.5 C 1301.24,1181.37 1301.91,1181.54 1302.5,1182C 1295.68,1189.8 1290.51,1198.63 1287,1208.5C 1285.29,1216.29 1286.79,1223.29 1291.5,1229.5C 1276.51,1230.5 1261.51,1230.83 1246.5,1230.5C 1246.67,1225.49 1246.5,1220.49 1246,1215.5C 1244.5,1211.33 1241.67,1208.5 1237.5,1207C 1223.83,1206.67 1210.17,1206.33 1196.5,1206C 1214.13,1195.94 1232.96,1189.11 1253,1185.5C 1265.54,1184.71 1271.21,1190.38 1270,1202.5C 1268.07,1204.68 1268.57,1206.35 1271.5,1207.5C 1275.96,1202.54 1280.62,1197.71 1285.5,1193C 1290.69,1189.3 1295.69,1185.47 1300.5,1181.5 Z"/></g>
<g><path style="opacity:1" fill="#3f3b38" d="M 1485.5,1187.5 C 1523.83,1187.33 1562.17,1187.5 1600.5,1188C 1604.93,1188.14 1608.93,1189.48 1612.5,1192C 1514.83,1195.31 1417.17,1198.65 1319.5,1202C 1314.32,1202.83 1310.82,1205.66 1309,1210.5C 1308,1222.83 1307,1235.17 1306,1247.5C 1305.1,1246.3 1303.93,1245.47 1302.5,1245C 1277.5,1244.5 1252.5,1244.33 1227.5,1244.5C 1227.5,1237.17 1227.5,1229.83 1227.5,1222.5C 1213.5,1222 1199.5,1221.5 1185.5,1221C 1198.45,1217.74 1211.45,1214.74 1224.5,1212C 1228.5,1211.33 1232.5,1211.33 1236.5,1212C 1238.67,1212.83 1240.17,1214.33 1241,1216.5C 1241.77,1222.94 1241.27,1229.28 1239.5,1235.5C 1258.5,1235.5 1277.5,1235.5 1296.5,1235.5C 1295.55,1227.16 1294.71,1218.82 1294,1210.5C 1294.98,1203.53 1298.81,1199.03 1305.5,1197C 1333.12,1193.84 1360.79,1192.34 1388.5,1192.5C 1390.12,1191.85 1391.78,1191.35 1393.5,1191C 1424.33,1189.77 1454.99,1188.6 1485.5,1187.5 Z"/></g>
<g><path style="opacity:1" fill="#403c39" d="M 1634.5,1192.5 C 1641.17,1192.5 1647.83,1192.5 1654.5,1192.5C 1653.39,1205.15 1652.39,1217.82 1651.5,1230.5C 1651.54,1233.55 1651.88,1236.55 1652.5,1239.5C 1642.25,1241.25 1631.92,1242.25 1621.5,1242.5C 1621.5,1244.17 1621.5,1245.83 1621.5,1247.5C 1626.85,1247.43 1632.19,1247.1 1637.5,1246.5C 1632.56,1292.81 1627.72,1339.15 1623,1385.5C 1619.72,1392.4 1614.22,1396.23 1606.5,1397C 1529.25,1410.88 1451.42,1419.71 1373,1423.5C 1364.73,1423.89 1357.23,1421.73 1350.5,1417C 1339.04,1401.53 1329.21,1385.03 1321,1367.5C 1316.65,1355.44 1313.31,1343.11 1311,1330.5C 1309.1,1313.42 1306.93,1296.42 1304.5,1279.5C 1279.43,1277.13 1254.6,1278.47 1230,1283.5C 1228.01,1282.71 1226.85,1281.21 1226.5,1279C 1227.2,1275.87 1227.7,1272.71 1228,1269.5C 1256.09,1268.5 1284.26,1268.17 1312.5,1268.5C 1316.04,1301.01 1323.21,1332.67 1334,1363.5C 1344.72,1394.44 1365.89,1405.11 1397.5,1395.5C 1417.04,1393.6 1436.71,1391.1 1456.5,1388C 1502.15,1384.17 1547.82,1380.5 1593.5,1377C 1603.84,1373.99 1610,1367.16 1612,1356.5C 1615.31,1302.53 1618.31,1248.53 1621,1194.5C 1625.6,1193.86 1630.1,1193.19 1634.5,1192.5 Z"/></g>
<g><path style="opacity:1" fill="#b2aaa6" d="M 1331.5,1223.5 C 1329.17,1223.5 1326.83,1223.5 1324.5,1223.5C 1323.86,1226.13 1323.19,1228.8 1322.5,1231.5C 1322.51,1233.05 1322.84,1234.38 1323.5,1235.5C 1324.85,1277.15 1330.68,1318.15 1341,1358.5C 1343.69,1370.07 1349.52,1379.57 1358.5,1387C 1362.53,1389.45 1366.86,1391.12 1371.5,1392C 1361.64,1391.84 1353.81,1387.68 1348,1379.5C 1340.38,1365.98 1334.71,1351.65 1331,1336.5C 1323.91,1309.83 1318.58,1282.83 1315,1255.5C 1312.14,1253.8 1310.97,1251.3 1311.5,1248C 1312.26,1236.16 1313.1,1224.33 1314,1212.5C 1314.78,1210.71 1315.95,1209.21 1317.5,1208C 1416.77,1203.84 1516.1,1200.34 1615.5,1197.5C 1615.5,1200.83 1615.5,1204.17 1615.5,1207.5C 1520.81,1212.33 1426.14,1217.66 1331.5,1223.5 Z"/></g>
<g><path style="opacity:1" fill="#010101" d="M 1628.5,1201.5 C 1637.16,1200.07 1642.99,1203.41 1646,1211.5C 1647.15,1216.8 1647.48,1222.13 1647,1227.5C 1643.63,1234.43 1638.13,1236.93 1630.5,1235C 1627.5,1232.5 1624.16,1230.5 1620.5,1229C 1621.42,1228.63 1622.25,1228.13 1623,1227.5C 1622.42,1222.39 1624.25,1218.56 1628.5,1216C 1624.87,1212.95 1623.7,1209.12 1625,1204.5C 1626.52,1203.84 1627.69,1202.84 1628.5,1201.5 Z"/></g>
<g><path style="opacity:1" fill="#b4aca8" d="M 2199.5,1254.5 C 2190.48,1254 2181.48,1253.16 2172.5,1252C 2149.49,1248.08 2126.49,1244.08 2103.5,1240C 2090.01,1239.19 2076.67,1238.36 2063.5,1237.5C 2064.6,1236.44 2065.93,1235.61 2067.5,1235C 2035.46,1234.51 2003.46,1233.34 1971.5,1231.5C 1985.09,1220.04 2000.75,1212.88 2018.5,1210C 2046.2,1206.54 2073.86,1206.87 2101.5,1211C 2140.86,1218.17 2178.86,1229.67 2215.5,1245.5C 2210.44,1249.03 2205.1,1252.03 2199.5,1254.5 Z"/></g>
<g><path style="opacity:1" fill="#fbfbfb" d="M 1531.5,1216.5 C 1538.2,1216.17 1544.87,1216.5 1551.5,1217.5C 1538.33,1238.5 1525.17,1259.5 1512,1280.5C 1510.52,1283.11 1509.35,1285.78 1508.5,1288.5C 1515.55,1288.51 1522.55,1288.34 1529.5,1288C 1514.03,1307.78 1498.19,1327.28 1482,1346.5C 1471.5,1358.33 1460.33,1369.5 1448.5,1380C 1446.28,1381.28 1443.95,1382.28 1441.5,1383C 1434.83,1383.67 1428.17,1383.67 1421.5,1383C 1439.12,1365.91 1453.95,1346.74 1466,1325.5C 1466.67,1322.83 1466.67,1320.17 1466,1317.5C 1463.96,1315.29 1461.79,1313.29 1459.5,1311.5C 1477.63,1281.42 1495.63,1251.25 1513.5,1221C 1512.83,1220.33 1512.17,1219.67 1511.5,1219C 1518.27,1217.95 1524.94,1217.12 1531.5,1216.5 Z"/></g>
<g><path style="opacity:1" fill="#fafafa" d="M 1497.5,1218.5 C 1499.53,1218.34 1501.53,1218.5 1503.5,1219C 1483.67,1252.17 1463.83,1285.33 1444,1318.5C 1439.65,1325.19 1433.82,1330.02 1426.5,1333C 1423.17,1333.67 1419.83,1333.67 1416.5,1333C 1414.02,1330.72 1413.85,1328.22 1416,1325.5C 1439.54,1293.44 1458.7,1258.77 1473.5,1221.5C 1481.59,1220.11 1489.59,1219.11 1497.5,1218.5 Z"/></g>
<g><path style="opacity:1" fill="#444140" d="M 1331.5,1223.5 C 1329.74,1224.46 1327.74,1224.79 1325.5,1224.5C 1324.3,1228.05 1323.63,1231.71 1323.5,1235.5C 1322.84,1234.38 1322.51,1233.05 1322.5,1231.5C 1323.19,1228.8 1323.86,1226.13 1324.5,1223.5C 1326.83,1223.5 1329.17,1223.5 1331.5,1223.5 Z"/></g>
<g><path style="opacity:1" fill="#7a6f69" d="M 2063.5,1237.5 C 2076.67,1238.36 2090.01,1239.19 2103.5,1240C 2126.49,1244.08 2149.49,1248.08 2172.5,1252C 2181.48,1253.16 2190.48,1254 2199.5,1254.5C 2160.06,1277.39 2120.39,1300.06 2080.5,1322.5C 2079.48,1322 2079.31,1321.33 2080,1320.5C 2088.17,1311.67 2096.33,1302.83 2104.5,1294C 2090.88,1298.12 2077.22,1302.12 2063.5,1306C 2081.24,1295.27 2099.24,1284.93 2117.5,1275C 2075.51,1278.11 2033.51,1281.11 1991.5,1284C 2015.36,1268.24 2039.36,1252.74 2063.5,1237.5 Z"/></g>
<g><path style="opacity:1" fill="#413d3a" d="M 1755.5,1467.5 C 1768.82,1469.94 1782.16,1471.94 1795.5,1473.5C 1794.76,1472.82 1794.09,1472.15 1793.5,1471.5C 1794.23,1470.12 1794.9,1468.62 1795.5,1467C 1787.42,1462.92 1779.09,1459.76 1770.5,1457.5C 1754.1,1447.5 1736.1,1439.67 1716.5,1434C 1660.86,1420.13 1605.19,1420.13 1549.5,1434C 1512.6,1443.3 1476.93,1455.97 1442.5,1472C 1387.1,1498.87 1332.1,1526.54 1277.5,1555C 1238.31,1574.4 1197.65,1590.06 1155.5,1602C 1132.61,1608.56 1109.28,1611.56 1085.5,1611C 1051.78,1608.25 1027.61,1591.75 1013,1561.5C 1008.88,1551.16 1007.71,1540.49 1009.5,1529.5C 1024.15,1533.33 1038.65,1537.66 1053,1542.5C 1042.6,1470.68 1064.77,1411.18 1119.5,1364C 1144.66,1344.59 1172.99,1331.93 1204.5,1326C 1221.23,1323.71 1237.89,1321.04 1254.5,1318C 1271.31,1314.59 1286.65,1307.92 1300.5,1298C 1301.41,1296.3 1301.74,1294.47 1301.5,1292.5C 1302.94,1318.35 1307.77,1343.68 1316,1368.5C 1324.48,1387.29 1334.98,1404.79 1347.5,1421C 1355.14,1426.78 1363.81,1429.28 1373.5,1428.5C 1452.08,1424.75 1530.08,1415.92 1607.5,1402C 1618.37,1400.79 1625.2,1394.96 1628,1384.5C 1631.36,1350.76 1635.19,1317.09 1639.5,1283.5C 1656.95,1277.2 1674.95,1273.37 1693.5,1272C 1758.37,1266.37 1819.37,1279.04 1876.5,1310C 1888.53,1317.2 1899.86,1325.36 1910.5,1334.5C 1916.08,1345.33 1921.91,1355.99 1928,1366.5C 1933.49,1376.49 1938.16,1386.82 1942,1397.5C 1943.71,1404.98 1943.04,1412.32 1940,1419.5C 1935.22,1428.4 1931.55,1437.73 1929,1447.5C 1926.91,1460.77 1925.25,1474.11 1924,1487.5C 1918.87,1514.9 1910.53,1541.24 1899,1566.5C 1889.7,1546.17 1885.87,1524.83 1887.5,1502.5C 1885.53,1502.26 1883.7,1502.59 1882,1503.5C 1883,1544.18 1870.66,1580.18 1845,1611.5C 1818.84,1642.02 1787.01,1664.85 1749.5,1680C 1724.05,1690.26 1698.05,1698.93 1671.5,1706C 1584.17,1728.33 1496.83,1750.67 1409.5,1773C 1362.52,1778.86 1315.52,1784.53 1268.5,1790C 1229.95,1795.08 1194.29,1787.41 1161.5,1767C 1160.3,1766.35 1160.3,1765.85 1161.5,1765.5C 1180.55,1776.02 1200.88,1782.85 1222.5,1786C 1263.29,1790.76 1302.96,1786.1 1341.5,1772C 1366.04,1762.9 1389.7,1751.9 1412.5,1739C 1460.76,1709.73 1507.09,1677.73 1551.5,1643C 1620.55,1585.79 1688.55,1527.29 1755.5,1467.5 Z"/></g>
<g><path style="opacity:1" fill="#aea6a3" d="M 1043.5,1276.5 C 1045.28,1277.57 1046.45,1279.24 1047,1281.5C 1055.93,1305.29 1065.43,1328.79 1075.5,1352C 1073.84,1353.66 1071.84,1354.5 1069.5,1354.5C 1059.63,1328.89 1049.97,1303.23 1040.5,1277.5C 1041.79,1277.74 1042.79,1277.4 1043.5,1276.5 Z"/></g>
<g><path style="opacity:1" fill="#b5ada9" d="M 1301.5,1292.5 C 1301.74,1294.47 1301.41,1296.3 1300.5,1298C 1286.65,1307.92 1271.31,1314.59 1254.5,1318C 1237.89,1321.04 1221.23,1323.71 1204.5,1326C 1172.99,1331.93 1144.66,1344.59 1119.5,1364C 1064.77,1411.18 1042.6,1470.68 1053,1542.5C 1038.65,1537.66 1024.15,1533.33 1009.5,1529.5C 1007.71,1540.49 1008.88,1551.16 1013,1561.5C 1027.61,1591.75 1051.78,1608.25 1085.5,1611C 1109.28,1611.56 1132.61,1608.56 1155.5,1602C 1197.65,1590.06 1238.31,1574.4 1277.5,1555C 1332.1,1526.54 1387.1,1498.87 1442.5,1472C 1476.93,1455.97 1512.6,1443.3 1549.5,1434C 1605.19,1420.13 1660.86,1420.13 1716.5,1434C 1736.1,1439.67 1754.1,1447.5 1770.5,1457.5C 1665.46,1426.55 1566.13,1439.38 1472.5,1496C 1436.66,1518.42 1400.33,1540.09 1363.5,1561C 1272.27,1608.57 1175.27,1635.74 1072.5,1642.5C 1027.12,1643.74 998.951,1622.41 988,1578.5C 978.522,1544.89 978.188,1511.22 987,1477.5C 988.61,1472.67 990.61,1468 993,1463.5C 997.834,1489.73 1011.67,1508.73 1034.5,1520.5C 1022.22,1496.28 1013.06,1470.95 1007,1444.5C 1003.3,1426.43 1006.96,1410.1 1018,1395.5C 1027.46,1384.7 1038.63,1376.2 1051.5,1370C 1103.5,1345 1155.5,1320 1207.5,1295C 1237.99,1284.11 1269.32,1280.61 1301.5,1284.5C 1301.5,1287.17 1301.5,1289.83 1301.5,1292.5 Z"/></g>
<g><path style="opacity:1" fill="#f1f1f1" d="M 1838.5,1299.5 C 1856.74,1297.1 1867.74,1304.77 1871.5,1322.5C 1870.02,1338.31 1861.36,1346.64 1845.5,1347.5C 1825.86,1344.88 1818.02,1333.88 1822,1314.5C 1825.82,1307.5 1831.32,1302.5 1838.5,1299.5 Z"/></g>
<g><path style="opacity:1" fill="#efefef" d="M 1885.5,1339.5 C 1900.37,1339.53 1906.87,1346.86 1905,1361.5C 1901.81,1368.52 1896.31,1372.19 1888.5,1372.5C 1873.69,1369.22 1869.19,1360.55 1875,1346.5C 1878,1343.26 1881.5,1340.93 1885.5,1339.5 Z"/></g>
<g><path style="opacity:1" fill="#f0f0f0" d="M 1807.5,1344.5 C 1813.18,1344.33 1818.84,1344.5 1824.5,1345C 1837.67,1348.78 1841.84,1356.95 1837,1369.5C 1824.53,1380.36 1811.37,1381.19 1797.5,1372C 1790.36,1363.67 1791.02,1356 1799.5,1349C 1802.1,1347.2 1804.77,1345.7 1807.5,1344.5 Z"/></g>
<g><path style="opacity:1" fill="#f1f1f1" d="M 1855.5,1379.5 C 1872.46,1377.62 1882.46,1384.96 1885.5,1401.5C 1881.88,1419.99 1870.88,1426.82 1852.5,1422C 1838.9,1414.43 1835.4,1403.6 1842,1389.5C 1845.8,1385.04 1850.3,1381.7 1855.5,1379.5 Z"/></g>
<g><path style="opacity:1" fill="#b4aca8" d="M 2180.5,1460.5 C 2161.3,1439.55 2138.3,1424.05 2111.5,1414C 2113.74,1412.99 2113.41,1412.16 2110.5,1411.5C 2084.54,1402.29 2058.88,1392.29 2033.5,1381.5C 2049.56,1378.71 2065.56,1379.21 2081.5,1383C 2115.7,1391.77 2147.03,1406.43 2175.5,1427C 2188.55,1435.88 2200.89,1445.72 2212.5,1456.5C 2201.93,1458.3 2191.27,1459.64 2180.5,1460.5 Z"/></g>
<g><path style="opacity:1" fill="#f8f8f8" d="M 1233.5,1412.5 C 1228.6,1408.22 1222.94,1405.22 1216.5,1403.5C 1185.74,1396.28 1156.41,1400.44 1128.5,1416C 1125.58,1417.95 1122.91,1420.11 1120.5,1422.5C 1114.19,1426.81 1108.85,1432.15 1104.5,1438.5C 1102,1442.82 1101.17,1442.48 1102,1437.5C 1114.19,1412.68 1134.02,1397.52 1161.5,1392C 1175.77,1389.12 1190.1,1388.79 1204.5,1391C 1217.74,1394.2 1228.58,1401.03 1237,1411.5C 1237.98,1412.76 1238.32,1414.09 1238,1415.5C 1236.73,1414.12 1235.23,1413.12 1233.5,1412.5 Z"/></g>
<g><path style="opacity:1" fill="#0e0e0e" d="M 1216.5,1403.5 C 1222.94,1405.22 1228.6,1408.22 1233.5,1412.5C 1231.75,1414.85 1229.75,1415.02 1227.5,1413C 1223.76,1409.82 1220.09,1406.65 1216.5,1403.5 Z"/></g>
<g><path style="opacity:1" fill="#000000" d="M 1190.5,1410.5 C 1205.02,1408.08 1216.85,1412.41 1226,1423.5C 1228.53,1427.19 1229.86,1431.19 1230,1435.5C 1223.75,1431.29 1217.25,1427.46 1210.5,1424C 1206.37,1422.71 1203.21,1423.87 1201,1427.5C 1200.67,1438.83 1200.33,1450.17 1200,1461.5C 1195.45,1476.72 1185.28,1485.89 1169.5,1489C 1157.21,1490.73 1144.88,1492.06 1132.5,1493C 1123.89,1494.22 1116.39,1497.72 1110,1503.5C 1105.83,1509.85 1102.16,1516.51 1099,1523.5C 1105.79,1473.37 1131.96,1437.2 1177.5,1415C 1181.85,1413.16 1186.18,1411.66 1190.5,1410.5 Z"/></g>
<g><path style="opacity:1" fill="#796e68" d="M 2110.5,1411.5 C 2113.41,1412.16 2113.74,1412.99 2111.5,1414C 2138.3,1424.05 2161.3,1439.55 2180.5,1460.5C 2153.2,1463.6 2125.87,1466.1 2098.5,1468C 2105.23,1463.64 2111.57,1458.81 2117.5,1453.5C 2089.68,1443.84 2061.68,1434.67 2033.5,1426C 2032.5,1423.91 2033.17,1422.24 2035.5,1421C 2040.17,1418.16 2045.17,1416.16 2050.5,1415C 2070.57,1411.88 2090.57,1410.72 2110.5,1411.5 Z"/></g>
<g><path style="opacity:1" fill="#0d0d0d" d="M 1120.5,1422.5 C 1116.14,1427.53 1112.14,1432.87 1108.5,1438.5C 1107.19,1439.63 1105.86,1439.63 1104.5,1438.5C 1108.85,1432.15 1114.19,1426.81 1120.5,1422.5 Z"/></g>
<g><path style="opacity:1" fill="#31efdd" d="M 1352.5,1785.5 C 1354.41,1785.22 1356.08,1785.55 1357.5,1786.5C 1341.51,1790.33 1325.51,1794.16 1309.5,1798C 1279.78,1804.55 1249.78,1806.55 1219.5,1804C 1155.13,1792.94 1108.46,1758.27 1079.5,1700C 1225.13,1715.76 1357.8,1681.76 1477.5,1598C 1516.67,1569.16 1556.67,1541.5 1597.5,1515C 1635.32,1492.17 1675.98,1476.84 1719.5,1469C 1728.81,1467.77 1738.14,1467.43 1747.5,1468C 1701.8,1508.71 1655.8,1549.04 1609.5,1589C 1555.67,1635.51 1499,1678.18 1439.5,1717C 1409.22,1736.48 1377.22,1752.81 1343.5,1766C 1300.7,1782.27 1256.7,1786.61 1211.5,1779C 1181.41,1772.79 1155.07,1759.45 1132.5,1739C 1130,1738.83 1128.83,1740 1129,1742.5C 1154.08,1773.46 1186.58,1790.96 1226.5,1795C 1239.5,1795.67 1252.5,1795.67 1265.5,1795C 1294.55,1792.23 1323.55,1789.06 1352.5,1785.5 Z"/></g>
<g><path style="opacity:1" fill="#a19a96" d="M 1793.5,1471.5 C 1794.09,1472.15 1794.76,1472.82 1795.5,1473.5C 1782.16,1471.94 1768.82,1469.94 1755.5,1467.5C 1768.19,1466.98 1780.85,1468.32 1793.5,1471.5 Z"/></g>
<g><path style="opacity:1" fill="#b3b3b3" d="M 1556.5,1524.5 C 1557.5,1511.68 1557.83,1498.68 1557.5,1485.5C 1558.19,1491.25 1558.52,1497.75 1558.5,1505C 1558.17,1511.83 1557.83,1518.67 1557.5,1525.5C 1556.89,1525.38 1556.56,1525.04 1556.5,1524.5 Z"/></g>
<g><path style="opacity:1" fill="#efefef" d="M 1557.5,1485.5 C 1557.83,1498.68 1557.5,1511.68 1556.5,1524.5C 1542.6,1521.31 1528.93,1517.31 1515.5,1512.5C 1529.19,1502.99 1543.19,1493.99 1557.5,1485.5 Z"/></g>
<g><path style="opacity:1" fill="#31eedc" d="M 2057.5,1526.5 C 2057.56,1533.52 2057.23,1540.52 2056.5,1547.5C 2054.67,1556.34 2050.01,1563.17 2042.5,1568C 2039.04,1568.82 2035.7,1568.48 2032.5,1567C 2026.79,1562.42 2022.96,1556.58 2021,1549.5C 2019.48,1540.22 2019.15,1530.89 2020,1521.5C 2021.51,1511.95 2026.34,1504.78 2034.5,1500C 2042.28,1498.64 2048.11,1501.47 2052,1508.5C 2055.35,1514.05 2057.18,1520.05 2057.5,1526.5 Z"/></g>
<g><path style="opacity:1" fill="#efefef" d="M 1508.5,1516.5 C 1509.82,1519.43 1510.49,1522.76 1510.5,1526.5C 1511.2,1537.16 1511.53,1547.82 1511.5,1558.5C 1495.32,1554.79 1479.32,1550.46 1463.5,1545.5C 1478.39,1535.56 1493.39,1525.89 1508.5,1516.5 Z"/></g>
<g><path style="opacity:1" fill="#b3aba7" d="M 2057.5,1526.5 C 2058.22,1528.22 2058.89,1530.05 2059.5,1532C 2087.55,1547.04 2111.71,1566.87 2132,1591.5C 2136.54,1598.08 2140.71,1604.92 2144.5,1612C 2142.87,1612.49 2141.2,1612.66 2139.5,1612.5C 2122.43,1596.09 2104.43,1580.76 2085.5,1566.5C 2076,1559.92 2066.34,1553.58 2056.5,1547.5C 2057.23,1540.52 2057.56,1533.52 2057.5,1526.5 Z"/></g>
<g><path style="opacity:1" fill="#3d3a37" d="M 1918.5,1531.5 C 1923.1,1557.62 1923.6,1583.95 1920,1610.5C 1913.76,1642.5 1896.26,1666 1867.5,1681C 1759.96,1737.41 1645.62,1760.58 1524.5,1750.5C 1559.48,1748.42 1594.48,1746.76 1629.5,1745.5C 1712.11,1738.18 1790.11,1715.35 1863.5,1677C 1897.66,1658.56 1915.49,1629.73 1917,1590.5C 1917.69,1577.29 1917.19,1564.12 1915.5,1551C 1915.93,1544.36 1916.93,1537.86 1918.5,1531.5 Z"/></g>
<g><path style="opacity:1" fill="#403c39" d="M 1884.5,1544.5 C 1887.85,1556.68 1892.68,1568.35 1899,1579.5C 1902.59,1571.98 1905.92,1564.31 1909,1556.5C 1904.2,1586.09 1891.87,1612.09 1872,1634.5C 1850.17,1657 1825,1674.83 1796.5,1688C 1717.9,1721.52 1635.9,1739.85 1550.5,1743C 1600.3,1730.47 1649.96,1717.47 1699.5,1704C 1732.51,1694.49 1763.85,1681.16 1793.5,1664C 1839.17,1635.83 1869.5,1596 1884.5,1544.5 Z"/></g>
<g><path style="opacity:1" fill="#ededed" d="M 1461.5,1548.5 C 1463.44,1563.48 1464.78,1578.81 1465.5,1594.5C 1449.23,1589.36 1433.23,1583.52 1417.5,1577C 1432.34,1567.64 1447.01,1558.14 1461.5,1548.5 Z"/></g>
<g><path style="opacity:1" fill="#786d67" d="M 2085.5,1566.5 C 2104.43,1580.76 2122.43,1596.09 2139.5,1612.5C 2120.56,1609.71 2101.56,1607.37 2082.5,1605.5C 2082.5,1603.5 2082.5,1601.5 2082.5,1599.5C 2092.52,1599.12 2102.52,1598.45 2112.5,1597.5C 2092.96,1585.1 2071.63,1580.1 2048.5,1582.5C 2048.58,1581.07 2048.25,1579.74 2047.5,1578.5C 2048.03,1577.81 2048.69,1577.31 2049.5,1577C 2061.71,1573.79 2073.71,1570.29 2085.5,1566.5 Z"/></g>
<g><path style="opacity:1" fill="#f0f0f0" d="M 1410.5,1579.5 C 1411.5,1579.5 1412.5,1579.5 1413.5,1579.5C 1412.15,1596.84 1410.65,1614.17 1409,1631.5C 1392.42,1622.13 1375.92,1612.63 1359.5,1603C 1362.83,1602.67 1366.17,1602.33 1369.5,1602C 1383.55,1594.98 1397.22,1587.48 1410.5,1579.5 Z"/></g>
<g><path style="opacity:1" fill="#2a2622" d="M 1785.5,1919.5 C 1792.38,1918.84 1799.38,1918.01 1806.5,1917C 1809.76,1915.41 1811.92,1912.91 1813,1909.5C 1811.4,1885.49 1808.23,1861.66 1803.5,1838C 1808.95,1832.2 1808.62,1826.7 1802.5,1821.5C 1854.79,1764.33 1896.62,1699.99 1928,1628.5C 1928,1626.5 1928,1624.5 1928,1622.5C 1929.49,1621.25 1930.99,1621.25 1932.5,1622.5C 1934.55,1628.28 1937.39,1633.61 1941,1638.5C 1941.23,1625.77 1944.23,1613.77 1950,1602.5C 1954.56,1595.92 1960.73,1593.76 1968.5,1596C 1971.69,1597.69 1974.03,1600.19 1975.5,1603.5C 1977.15,1599.24 1978.65,1594.91 1980,1590.5C 1982.33,1586.27 1985.33,1585.6 1989,1588.5C 1990.01,1590.53 1990.51,1592.7 1990.5,1595C 1980,1673.89 1969.5,1751.72 1959,1828.5C 1958.67,1825.83 1958.33,1823.17 1958,1820.5C 1956.94,1823.62 1955.61,1826.62 1954,1829.5C 1949.35,1835.41 1945.01,1841.08 1941,1846.5C 1935.89,1840.87 1932.89,1834.2 1932,1826.5C 1931.38,1815.43 1931.72,1804.43 1933,1793.5C 1929.82,1796.05 1926.16,1797.38 1922,1797.5C 1916.64,1796.55 1911.81,1794.72 1907.5,1792C 1917.11,1801.39 1924.61,1812.22 1930,1824.5C 1934.04,1840.73 1929.2,1853.57 1915.5,1863C 1901.05,1869.06 1886.72,1875.39 1872.5,1882C 1869.37,1884.13 1866.54,1886.63 1864,1889.5C 1860.8,1896.04 1855.8,1900.37 1849,1902.5C 1843.86,1901.09 1838.69,1899.76 1833.5,1898.5C 1829.03,1899.32 1825.19,1901.32 1822,1904.5C 1819.33,1908.5 1816.67,1912.5 1814,1916.5C 1812.13,1918.71 1809.96,1920.54 1807.5,1922C 1800.16,1921.5 1792.82,1920.67 1785.5,1919.5 Z"/></g>
<g><path style="opacity:1" fill="#403c39" d="M 1984.5,1592.5 C 1975.89,1662.3 1966.72,1732.3 1957,1802.5C 1955.7,1816.09 1950.37,1827.76 1941,1837.5C 1938.35,1831.11 1936.85,1824.44 1936.5,1817.5C 1938.18,1802.43 1940.35,1787.43 1943,1772.5C 1943.92,1759.27 1943.42,1746.1 1941.5,1733C 1941.67,1732.17 1941.83,1731.33 1942,1730.5C 1950.6,1732.36 1956.26,1729.03 1959,1720.5C 1960.12,1699.11 1962.12,1677.77 1965,1656.5C 1971.79,1635.25 1978.29,1613.92 1984.5,1592.5 Z"/></g>
<g><path style="opacity:1" fill="#02b8bd" d="M 1959.5,1600.5 C 1970.34,1601.13 1974.01,1606.8 1970.5,1617.5C 1968.2,1619.43 1966.36,1621.76 1965,1624.5C 1963.93,1630.82 1962.93,1637.15 1962,1643.5C 1959.06,1651.15 1954.73,1652.15 1949,1646.5C 1945.1,1632.21 1946.77,1618.54 1954,1605.5C 1955.73,1603.6 1957.56,1601.93 1959.5,1600.5 Z"/></g>
<g><path style="opacity:1" fill="#eeeeee" d="M 1356.5,1606.5 C 1357.5,1606.5 1358.5,1606.5 1359.5,1606.5C 1357.94,1621.22 1355.94,1635.89 1353.5,1650.5C 1340.5,1640.67 1327.5,1630.83 1314.5,1621C 1328.61,1616.15 1342.61,1611.32 1356.5,1606.5 Z"/></g>
<g><path style="opacity:1" fill="#2c2723" d="M 2070.5,1669.5 C 2071.24,1669.63 2071.91,1669.46 2072.5,1669C 2060.74,1658.57 2048.41,1648.9 2035.5,1640C 2027.96,1636.09 2020.29,1633.59 2012.5,1632.5C 2010,1629.88 2010.33,1627.38 2013.5,1625C 2026.35,1624.06 2038.02,1627.39 2048.5,1635C 2060.96,1643.96 2070.29,1655.46 2076.5,1669.5C 2074.36,1670.79 2072.36,1670.79 2070.5,1669.5 Z"/></g>
<g><path style="opacity:1" fill="#eeeeee" d="M 1309.5,1624.5 C 1310.12,1624.92 1310.46,1625.58 1310.5,1626.5C 1307.67,1641.15 1305,1655.82 1302.5,1670.5C 1283.5,1663.83 1264.83,1656.33 1246.5,1648C 1267.71,1640.43 1288.71,1632.6 1309.5,1624.5 Z"/></g>
<g><path style="opacity:1" fill="#776d67" d="M 2070.5,1669.5 C 2055.15,1668.2 2039.82,1666.7 2024.5,1665C 2023.44,1661.21 2022.44,1657.37 2021.5,1653.5C 2022.03,1652.81 2022.69,1652.31 2023.5,1652C 2028.53,1651.83 2033.53,1651.33 2038.5,1650.5C 2030.83,1645.67 2023.17,1640.83 2015.5,1636C 2014.29,1634.96 2013.29,1633.79 2012.5,1632.5C 2020.29,1633.59 2027.96,1636.09 2035.5,1640C 2048.41,1648.9 2060.74,1658.57 2072.5,1669C 2071.91,1669.46 2071.24,1669.63 2070.5,1669.5 Z"/></g>
<g><path style="opacity:0.97" fill="#09f5dd" d="M 2344.5,1639.5 C 2351.32,1651.79 2359.15,1663.46 2368,1674.5C 2378.16,1684.98 2389.32,1694.15 2401.5,1702C 2382.71,1711.12 2366.55,1723.62 2353,1739.5C 2348.58,1746.01 2343.91,1752.34 2339,1758.5C 2329.54,1739.38 2316.71,1722.88 2300.5,1709C 2294.5,1704.67 2288.5,1700.33 2282.5,1696C 2309.06,1683.6 2329.73,1664.77 2344.5,1639.5 Z"/></g>
<g><path style="opacity:1" fill="#ededed" d="M 1241.5,1651.5 C 1242.68,1651.28 1243.68,1651.61 1244.5,1652.5C 1238.58,1664.87 1231.74,1676.54 1224,1687.5C 1209.76,1680.63 1195.6,1673.63 1181.5,1666.5C 1201.6,1661.48 1221.6,1656.48 1241.5,1651.5 Z"/></g>
<g><path style="opacity:1" fill="#ececec" d="M 1174.5,1663.5 C 1175.24,1663.37 1175.91,1663.54 1176.5,1664C 1170.96,1674.25 1165.29,1684.41 1159.5,1694.5C 1149.69,1687.19 1140.02,1679.69 1130.5,1672C 1145.12,1668.62 1159.79,1665.79 1174.5,1663.5 Z"/></g>
<g><path style="opacity:1" fill="#2a2521" d="M 1902.5,1666.5 C 1903.04,1666.56 1903.38,1666.89 1903.5,1667.5C 1869.81,1733.36 1826.48,1792.19 1773.5,1844C 1750.56,1865.81 1724.56,1883.14 1695.5,1896C 1681.41,1902.19 1666.74,1905.86 1651.5,1907C 1717.98,1864.08 1777.48,1812.58 1830,1752.5C 1854.75,1724.25 1878.92,1695.59 1902.5,1666.5 Z"/></g>
<g><path style="opacity:1" fill="#676462" d="M 2053.5,1704.5 C 2053.56,1703.96 2053.89,1703.62 2054.5,1703.5C 2076.27,1715.49 2095.11,1731.16 2111,1750.5C 2128.18,1772.83 2142.84,1796.83 2155,1822.5C 2170.92,1860 2187.59,1897 2205,1933.5C 2196.83,1921.84 2189.17,1909.84 2182,1897.5C 2166.41,1866.65 2151.08,1835.65 2136,1804.5C 2119.19,1770.38 2096.69,1740.54 2068.5,1715C 2063.62,1711.28 2058.62,1707.78 2053.5,1704.5 Z"/></g>
<g><path style="opacity:1" fill="#d9b57c" d="M 2017.5,1727.5 C 2019.37,1731.53 2019.7,1735.53 2018.5,1739.5C 2010.1,1729.43 2000.43,1720.76 1989.5,1713.5C 1989.98,1712.52 1990.64,1711.69 1991.5,1711C 1996.61,1709.89 2001.28,1710.89 2005.5,1714C 2010.08,1718.07 2014.08,1722.57 2017.5,1727.5 Z"/></g>
<g><path style="opacity:1" fill="#01bbc0" d="M 1920.5,1718.5 C 1926.74,1717.72 1932.07,1719.38 1936.5,1723.5C 1935.69,1724.22 1935.02,1725.05 1934.5,1726C 1937.27,1742.38 1938.1,1758.88 1937,1775.5C 1936.16,1785 1931.16,1790.66 1922,1792.5C 1913.49,1790.33 1907.83,1785 1905,1776.5C 1902.58,1764.28 1901.92,1751.95 1903,1739.5C 1905.58,1729.59 1911.42,1722.59 1920.5,1718.5 Z"/></g>
<g><path style="opacity:1" fill="#a37e3e" d="M 2017.5,1727.5 C 2021.97,1731.11 2024.3,1735.78 2024.5,1741.5C 2021.99,1741.95 2019.99,1741.28 2018.5,1739.5C 2019.7,1735.53 2019.37,1731.53 2017.5,1727.5 Z"/></g>
<g><path style="opacity:1" fill="#2b2622" d="M 2183.5,1912.5 C 2169.57,1905.43 2155.9,1905.93 2142.5,1914C 2130.18,1926.4 2128.34,1940.24 2137,1955.5C 2148.6,1968.1 2162.43,1971.27 2178.5,1965C 2191.69,1957.8 2197.35,1946.63 2195.5,1931.5C 2202.09,1939.93 2208.92,1948.27 2216,1956.5C 2216.69,1957.33 2216.52,1958 2215.5,1958.5C 2176.47,1970.95 2138.13,1984.95 2100.5,2000.5C 2084.29,2002.4 2067.96,2004.4 2051.5,2006.5C 2065.34,1980.49 2077.84,1953.82 2089,1926.5C 2103.45,1889.83 2109.45,1851.83 2107,1812.5C 2105.83,1795.15 2101.83,1778.48 2095,1762.5C 2089.43,1751.33 2083.43,1740.66 2077,1730.5C 2093.64,1747.8 2107.97,1766.8 2120,1787.5C 2141.19,1829.22 2162.36,1870.89 2183.5,1912.5 Z"/></g>
<g><path style="opacity:1" fill="#dab67c" d="M 2020.5,1752.5 C 2020.3,1759.19 2020.14,1765.86 2020,1772.5C 2021.33,1770.5 2022.67,1768.5 2024,1766.5C 2025.13,1764.86 2026.63,1763.86 2028.5,1763.5C 2032.15,1771.49 2032.32,1779.49 2029,1787.5C 2022.13,1778.82 2013.97,1771.66 2004.5,1766C 2000.25,1762.42 1996.75,1758.25 1994,1753.5C 1993.33,1750.5 1993.33,1747.5 1994,1744.5C 1994.5,1742.67 1995.67,1741.5 1997.5,1741C 2006.6,1741.93 2014.27,1745.76 2020.5,1752.5 Z"/></g>
<g><path style="opacity:1" fill="#a88240" d="M 2020.5,1752.5 C 2023.89,1755.6 2026.56,1759.26 2028.5,1763.5C 2026.63,1763.86 2025.13,1764.86 2024,1766.5C 2022.67,1768.5 2021.33,1770.5 2020,1772.5C 2020.14,1765.86 2020.3,1759.19 2020.5,1752.5 Z"/></g>
<g><path style="opacity:1" fill="#d8b47b" d="M 1991.5,1776.5 C 1992.82,1776.33 1993.99,1776.66 1995,1777.5C 1995.5,1779.47 1995.66,1781.47 1995.5,1783.5C 1997.39,1783.3 1998.89,1783.96 2000,1785.5C 1999.58,1791.3 2001.08,1796.47 2004.5,1801C 2009.36,1803.66 2013.02,1802.49 2015.5,1797.5C 2020.48,1800.8 2022.81,1805.46 2022.5,1811.5C 2022.01,1818.15 2019.84,1824.15 2016,1829.5C 2015.67,1825.5 2015.33,1821.5 2015,1817.5C 2014.09,1816.67 2013.42,1815.67 2013,1814.5C 2004.31,1808.65 1995.97,1802.32 1988,1795.5C 1986.59,1788.59 1987.76,1782.26 1991.5,1776.5 Z"/></g>
<g><path style="opacity:1" fill="#21a094" d="M 1357.5,1786.5 C 1356.08,1785.55 1354.41,1785.22 1352.5,1785.5C 1357.29,1784.11 1362.29,1783.61 1367.5,1784C 1364.15,1784.84 1360.82,1785.67 1357.5,1786.5 Z"/></g>
<g><path style="opacity:0.957" fill="#09f5dd" d="M 947.5,1791.5 C 954.518,1800.03 962.184,1808.19 970.5,1816C 978.832,1821.83 987.499,1827.17 996.5,1832C 987.733,1838.76 979.567,1846.26 972,1854.5C 966.078,1862.67 960.911,1871.34 956.5,1880.5C 944.34,1862.51 928.34,1849.01 908.5,1840C 923.124,1829.37 934.957,1816.21 944,1800.5C 945.741,1797.69 946.908,1794.69 947.5,1791.5 Z"/></g>
<g><path style="opacity:1" fill="#020606" d="M 1888.5,1796.5 C 1892.79,1796.03 1896.79,1796.87 1900.5,1799C 1911.1,1809.32 1913.27,1821.15 1907,1834.5C 1902.86,1839.21 1897.69,1840.71 1891.5,1839C 1885.42,1835.68 1882.25,1830.51 1882,1823.5C 1879.61,1813.22 1881.77,1804.22 1888.5,1796.5 Z"/></g>
<g><path style="opacity:1" fill="#00babf" d="M 1890.5,1801.5 C 1892.99,1801.3 1895.32,1801.8 1897.5,1803C 1903.9,1809.62 1906.4,1817.45 1905,1826.5C 1903.58,1833.59 1899.41,1836.09 1892.5,1834C 1890.62,1832.46 1889.12,1830.62 1888,1828.5C 1886.67,1821.54 1886.34,1814.54 1887,1807.5C 1887.93,1805.31 1889.09,1803.31 1890.5,1801.5 Z"/></g>
<g><path style="opacity:1" fill="#d4b179" d="M 1992.5,1807.5 C 1996.37,1809.04 1999.71,1811.37 2002.5,1814.5C 1999.93,1820.69 1995.76,1825.35 1990,1828.5C 1986.95,1837.97 1985.95,1837.64 1987,1827.5C 1990.71,1821.34 1992.54,1814.67 1992.5,1807.5 Z"/></g>
<g><path style="opacity:1" fill="#c5a470" d="M 1985.5,1810.5 C 1986.78,1813.63 1986.28,1816.63 1984,1819.5C 1983.07,1816.18 1983.57,1813.18 1985.5,1810.5 Z"/></g>
<g><path style="opacity:1" fill="#c1b6b0" d="M 1802.5,1821.5 C 1808.62,1826.7 1808.95,1832.2 1803.5,1838C 1808.23,1861.66 1811.4,1885.49 1813,1909.5C 1811.92,1912.91 1809.76,1915.41 1806.5,1917C 1799.38,1918.01 1792.38,1918.84 1785.5,1919.5C 1781.63,1919.24 1777.96,1919.91 1774.5,1921.5C 1768.06,1922.02 1761.72,1923.19 1755.5,1925C 1738.23,1930.03 1721.23,1935.53 1704.5,1941.5C 1689.06,1945.41 1673.4,1946.91 1657.5,1946C 1684.5,1924.83 1711.5,1903.67 1738.5,1882.5C 1738.69,1880.93 1738.69,1879.43 1738.5,1878C 1761.83,1861.5 1783.17,1842.67 1802.5,1821.5 Z"/></g>
<g><path style="opacity:1" fill="#d5b179" d="M 1434.5,1842.5 C 1435.46,1840.25 1436.12,1837.92 1436.5,1835.5C 1444.28,1832.15 1450.78,1833.81 1456,1840.5C 1456.67,1842.5 1456.67,1844.5 1456,1846.5C 1449.7,1840.4 1442.53,1839.07 1434.5,1842.5 Z"/></g>
<g><path style="opacity:1" fill="#a37e3d" d="M 1436.5,1835.5 C 1436.12,1837.92 1435.46,1840.25 1434.5,1842.5C 1426.54,1846.74 1423.04,1853.41 1424,1862.5C 1426.05,1860.94 1428.22,1859.61 1430.5,1858.5C 1430.19,1862.37 1430.52,1866.04 1431.5,1869.5C 1429.38,1871.4 1427.05,1873.07 1424.5,1874.5C 1423.45,1870.74 1421.62,1867.41 1419,1864.5C 1418.62,1865.06 1418.12,1865.39 1417.5,1865.5C 1418.86,1854.61 1423.53,1845.45 1431.5,1838C 1433.08,1836.91 1434.74,1836.07 1436.5,1835.5 Z"/></g>
<g><path style="opacity:1" fill="#d3af76" d="M 1969.5,1811.5 C 1973.53,1811.68 1976.36,1813.68 1978,1817.5C 1979.17,1820.5 1980.34,1823.5 1981.5,1826.5C 1979.49,1832.65 1980.49,1838.15 1984.5,1843C 1985.42,1843.37 1986.25,1843.87 1987,1844.5C 1990.99,1841.85 1993.32,1838.19 1994,1833.5C 1996.42,1847.16 1993.75,1859.83 1986,1871.5C 1984.07,1868.12 1982.9,1864.45 1982.5,1860.5C 1983.44,1856.52 1983.61,1852.52 1983,1848.5C 1982.22,1846.71 1981.05,1845.21 1979.5,1844C 1964.05,1836.66 1960.72,1825.82 1969.5,1811.5 Z"/></g>
<g><path style="opacity:1" fill="#d9b57c" d="M 1951.5,1870.5 C 1951.5,1871.17 1951.17,1871.5 1950.5,1871.5C 1946.25,1870.29 1942.08,1868.96 1938,1867.5C 1937.36,1866.39 1936.86,1865.22 1936.5,1864C 1940.58,1853.59 1947.75,1846.09 1958,1841.5C 1961.82,1844.16 1963.16,1847.83 1962,1852.5C 1958.05,1854.65 1954.39,1857.32 1951,1860.5C 1950.25,1863.92 1950.42,1867.26 1951.5,1870.5 Z"/></g>
<g><path style="opacity:0.969" fill="#09f5dd" d="M 1104.5,1854.5 C 1111.46,1865.71 1118.96,1876.71 1127,1887.5C 1137.5,1898.51 1149,1908.18 1161.5,1916.5C 1144.21,1924.95 1129.05,1936.28 1116,1950.5C 1110.26,1957.65 1104.76,1964.99 1099.5,1972.5C 1094.76,1965.37 1090.26,1958.04 1086,1950.5C 1082.24,1945.32 1078.24,1940.32 1074,1935.5C 1064.24,1926.57 1054.08,1918.24 1043.5,1910.5C 1068.99,1897.34 1089.32,1878.67 1104.5,1854.5 Z"/></g>
<g><path style="opacity:1" fill="#d9b57c" d="M 1431.5,1869.5 C 1430.52,1866.04 1430.19,1862.37 1430.5,1858.5C 1443.96,1853.2 1452.29,1857.53 1455.5,1871.5C 1455.17,1871.83 1454.83,1872.17 1454.5,1872.5C 1447.37,1867.22 1439.71,1866.22 1431.5,1869.5 Z"/></g>
<g><path style="opacity:1" fill="#bfa06d" d="M 1966.5,1842.5 C 1969.48,1844.47 1972.48,1846.47 1975.5,1848.5C 1969.8,1855.2 1963.46,1861.2 1956.5,1866.5C 1955.42,1865.64 1955.25,1864.64 1956,1863.5C 1960.02,1861.32 1963.69,1858.66 1967,1855.5C 1967.63,1851.13 1967.46,1846.8 1966.5,1842.5 Z"/></g>
<g><path style="opacity:1" fill="#bbb0aa" d="M 1385.5,1862.5 C 1386.24,1862.37 1386.91,1862.54 1387.5,1863C 1330.44,1918.38 1275.94,1975.88 1224,2035.5C 1223.33,2033.17 1223.33,2030.83 1224,2028.5C 1225.67,2025.83 1227.33,2023.17 1229,2020.5C 1257.7,1988.8 1286.04,1956.8 1314,1924.5C 1335.66,1900.98 1359.5,1880.31 1385.5,1862.5 Z"/></g>
<g><path style="opacity:1" fill="#a27d3c" d="M 1950.5,1871.5 C 1951.17,1871.5 1951.5,1871.17 1951.5,1870.5C 1953.32,1872.16 1955.49,1873.16 1958,1873.5C 1961.79,1871.68 1965.63,1870.02 1969.5,1868.5C 1964.94,1881.96 1957.61,1893.62 1947.5,1903.5C 1947.17,1903.33 1946.83,1903.17 1946.5,1903C 1951.57,1894.56 1953.74,1885.39 1953,1875.5C 1951.91,1874.31 1951.07,1872.97 1950.5,1871.5 Z"/></g>
<g><path style="opacity:1" fill="#ba9b69" d="M 1435.5,1873.5 C 1443.09,1872.2 1449.43,1874.36 1454.5,1880C 1450.08,1877.85 1445.24,1876.69 1440,1876.5C 1436.13,1876.19 1432.63,1877.19 1429.5,1879.5C 1429.17,1879.33 1428.83,1879.17 1428.5,1879C 1430.9,1877.15 1433.24,1875.31 1435.5,1873.5 Z"/></g>
<g><path style="opacity:1" fill="#2a2521" d="M 1238.5,2030.5 C 1240.47,2032.81 1242.47,2035.14 1244.5,2037.5C 1255.8,2047.71 1268.8,2050.21 1283.5,2045C 1299.68,2036.17 1304.51,2023.01 1298,2005.5C 1293.12,1996.72 1285.78,1991.05 1276,1988.5C 1274.74,1988.15 1274.41,1987.48 1275,1986.5C 1312.24,1946.25 1350.58,1906.92 1390,1868.5C 1348.02,1935.23 1320.85,2007.89 1308.5,2086.5C 1283.42,2069.96 1257.09,2055.46 1229.5,2043C 1227.4,2041.27 1227.56,2039.44 1230,2037.5C 1232.71,2035.13 1235.04,2032.46 1237,2029.5C 1237.38,2030.06 1237.88,2030.39 1238.5,2030.5 Z"/></g>
<g><path style="opacity:1" fill="#d7b379" d="M 1916.5,1874.5 C 1920.51,1874.33 1924.51,1874.5 1928.5,1875C 1929.62,1875.25 1930.62,1875.75 1931.5,1876.5C 1926.28,1884.28 1922.11,1892.61 1919,1901.5C 1917.93,1900.81 1916.77,1900.31 1915.5,1900C 1911.09,1899.47 1906.76,1899.47 1902.5,1900C 1902.65,1888.86 1907.31,1880.36 1916.5,1874.5 Z"/></g>
<g><path style="opacity:1" fill="#ccaa74" d="M 1940.5,1875.5 C 1942.99,1875.13 1943.66,1875.8 1942.5,1877.5C 1940.1,1880.22 1937.43,1882.72 1934.5,1885C 1933.83,1885.67 1933.17,1885.67 1932.5,1885C 1934.83,1881.48 1937.5,1878.32 1940.5,1875.5 Z"/></g>
<g><path style="opacity:1" fill="#66553a" d="M 1940.5,1875.5 C 1942.03,1874.21 1943.7,1874.21 1945.5,1875.5C 1945,1876.92 1944,1877.59 1942.5,1877.5C 1943.66,1875.8 1942.99,1875.13 1940.5,1875.5 Z"/></g>
<g><path style="opacity:1" fill="#d8b57b" d="M 1435.5,1896.5 C 1433.88,1892.67 1432.88,1888.67 1432.5,1884.5C 1442.82,1879.22 1450.65,1881.88 1456,1892.5C 1456.82,1895.23 1456.65,1897.89 1455.5,1900.5C 1449.63,1894.7 1442.96,1893.36 1435.5,1896.5 Z"/></g>
<g><path style="opacity:1" fill="#a78140" d="M 1432.5,1884.5 C 1432.88,1888.67 1433.88,1892.67 1435.5,1896.5C 1434.49,1897.87 1433.49,1899.2 1432.5,1900.5C 1431.99,1896.45 1431.15,1892.45 1430,1888.5C 1429.62,1887.94 1429.12,1887.61 1428.5,1887.5C 1429.44,1886.03 1430.77,1885.03 1432.5,1884.5 Z"/></g>
<g><path style="opacity:1" fill="#d4b178" d="M 1424.5,1874.5 C 1418.77,1883.39 1418.11,1892.72 1422.5,1902.5C 1423.75,1897.14 1425.75,1892.14 1428.5,1887.5C 1429.12,1887.61 1429.62,1887.94 1430,1888.5C 1431.15,1892.45 1431.99,1896.45 1432.5,1900.5C 1430.87,1906.57 1427.21,1908.07 1421.5,1905C 1417.18,1898.71 1414.85,1891.71 1414.5,1884C 1415.13,1877.75 1416.13,1871.59 1417.5,1865.5C 1418.12,1865.39 1418.62,1865.06 1419,1864.5C 1421.62,1867.41 1423.45,1870.74 1424.5,1874.5 Z"/></g>
<g><path style="opacity:1" fill="#d1ae77" d="M 1892.5,1895.5 C 1896.8,1896.29 1897.63,1898.62 1895,1902.5C 1894,1903.17 1893,1903.83 1892,1904.5C 1891.26,1901.41 1891.43,1898.41 1892.5,1895.5 Z"/></g>
<g><path style="opacity:1" fill="#d9b57c" d="M 1879.5,1920.5 C 1877.16,1921.09 1874.99,1922.09 1873,1923.5C 1872.6,1923.27 1872.43,1922.94 1872.5,1922.5C 1872.63,1921.76 1872.46,1921.09 1872,1920.5C 1870.91,1921.29 1869.75,1921.96 1868.5,1922.5C 1866.26,1918.6 1863.09,1917.6 1859,1919.5C 1858.06,1923.21 1856.23,1926.37 1853.5,1929C 1851.17,1929.67 1848.83,1929.67 1846.5,1929C 1844.84,1928.27 1844.34,1927.11 1845,1925.5C 1847.13,1922.37 1849.63,1919.54 1852.5,1917C 1862.17,1910 1871.83,1903 1881.5,1896C 1883.11,1895.28 1884.61,1895.45 1886,1896.5C 1886.9,1899.49 1887.73,1902.49 1888.5,1905.5C 1883.17,1909.18 1880.17,1914.18 1879.5,1920.5 Z"/></g>
<g><path style="opacity:1" fill="#a37e3c" d="M 1930.5,1898.5 C 1931.38,1898.37 1932.04,1898.7 1932.5,1899.5C 1929.2,1909.95 1923.53,1918.79 1915.5,1926C 1913.17,1926.67 1910.83,1926.67 1908.5,1926C 1907.42,1924.27 1907.26,1922.44 1908,1920.5C 1912.87,1915.97 1916.53,1910.64 1919,1904.5C 1923.1,1902.87 1926.93,1900.87 1930.5,1898.5 Z"/></g>
<g><path style="opacity:1" fill="#c3a36f" d="M 1443.5,1901.5 C 1447.48,1900.7 1450.48,1902.37 1452.5,1906.5C 1452,1907.52 1451.33,1907.69 1450.5,1907C 1448,1905.33 1445.67,1903.5 1443.5,1901.5 Z"/></g>
<g><path style="opacity:1" fill="#a17f46" d="M 1438.5,1901.5 C 1439.69,1901.97 1440.36,1902.97 1440.5,1904.5C 1440.43,1909.6 1438.09,1911.6 1433.5,1910.5C 1435.43,1907.63 1437.1,1904.63 1438.5,1901.5 Z"/></g>
<g><path style="opacity:1" fill="#a37e3e" d="M 1906.5,1904.5 C 1908.6,1904.2 1910.6,1904.53 1912.5,1905.5C 1909.86,1909.31 1907.02,1912.98 1904,1916.5C 1902.82,1914.64 1901.15,1913.64 1899,1913.5C 1894.54,1915.43 1890.04,1916.93 1885.5,1918C 1889.67,1914.5 1893.83,1911 1898,1907.5C 1898.67,1908.17 1899.33,1908.83 1900,1909.5C 1901.97,1907.45 1904.13,1905.78 1906.5,1904.5 Z"/></g>
<g><path style="opacity:1" fill="#403c39" d="M 2183.5,1912.5 C 2189.78,1917.38 2193.78,1923.72 2195.5,1931.5C 2197.35,1946.63 2191.69,1957.8 2178.5,1965C 2162.43,1971.27 2148.6,1968.1 2137,1955.5C 2128.34,1940.24 2130.18,1926.4 2142.5,1914C 2155.9,1905.93 2169.57,1905.43 2183.5,1912.5 Z"/></g>
<g><path style="opacity:1" fill="#dbb77d" d="M 1450.5,1927.5 C 1447.57,1923.3 1444.9,1918.96 1442.5,1914.5C 1443.02,1912.8 1444.02,1911.47 1445.5,1910.5C 1453.33,1915.42 1461.67,1919.25 1470.5,1922C 1474.37,1924.16 1475.87,1927.33 1475,1931.5C 1473.53,1933.01 1471.69,1933.67 1469.5,1933.5C 1463.27,1931.22 1456.93,1929.22 1450.5,1927.5 Z"/></g>
<g><path style="opacity:1" fill="#dab67c" d="M 1433.5,1916.5 C 1434.69,1917.53 1435.52,1918.87 1436,1920.5C 1436.5,1927.51 1437,1934.51 1437.5,1941.5C 1434.8,1941.07 1432.64,1939.73 1431,1937.5C 1428.94,1930.78 1425.27,1925.11 1420,1920.5C 1419.03,1917.07 1420.03,1914.4 1423,1912.5C 1426.37,1914.27 1429.87,1915.6 1433.5,1916.5 Z"/></g>
<g><path style="opacity:1" fill="#6a6765" d="M 2155.5,1912.5 C 2157.5,1912.5 2159.5,1912.5 2161.5,1912.5C 2161.25,1921 2164.08,1928.33 2170,1934.5C 2173.18,1941.88 2171.35,1947.71 2164.5,1952C 2159.01,1954.25 2153.51,1956.41 2148,1958.5C 2138.88,1951.84 2135.22,1942.84 2137,1931.5C 2140.02,1921.98 2146.18,1915.65 2155.5,1912.5 Z"/></g>
<g><path style="opacity:1" fill="#a5803e" d="M 1442.5,1914.5 C 1444.9,1918.96 1447.57,1923.3 1450.5,1927.5C 1447.07,1927.55 1444.07,1928.71 1441.5,1931C 1445.8,1936.3 1450.47,1941.3 1455.5,1946C 1449.26,1945.32 1443.26,1943.82 1437.5,1941.5C 1437,1934.51 1436.5,1927.51 1436,1920.5C 1435.52,1918.87 1434.69,1917.53 1433.5,1916.5C 1436.75,1916.79 1439.75,1916.13 1442.5,1914.5 Z"/></g>
<g><path style="opacity:1" fill="#d9b57c" d="M 1832.5,1942.5 C 1829.29,1942.9 1826.29,1943.9 1823.5,1945.5C 1822.25,1943.36 1820.75,1941.36 1819,1939.5C 1816.9,1938.71 1814.73,1938.38 1812.5,1938.5C 1812.93,1941.86 1811.93,1944.7 1809.5,1947C 1806.43,1948.16 1804.77,1947.16 1804.5,1944C 1805.9,1939.2 1808.57,1935.2 1812.5,1932C 1821.7,1925.97 1831.03,1920.14 1840.5,1914.5C 1841.63,1916.07 1841.8,1917.74 1841,1919.5C 1836.44,1926.6 1833.61,1934.26 1832.5,1942.5 Z"/></g>
<g><path style="opacity:1" fill="#2f2a26" d="M 1774.5,1921.5 C 1769.54,1927.66 1763.2,1931.82 1755.5,1934C 1738.5,1936.55 1721.5,1939.05 1704.5,1941.5C 1721.23,1935.53 1738.23,1930.03 1755.5,1925C 1761.72,1923.19 1768.06,1922.02 1774.5,1921.5 Z"/></g>
<g><path style="opacity:1" fill="#a47e3d" d="M 1879.5,1920.5 C 1878.97,1921.85 1878.81,1923.18 1879,1924.5C 1880.41,1923.33 1881.57,1923.67 1882.5,1925.5C 1887.04,1923.93 1891.54,1922.26 1896,1920.5C 1896.5,1920.83 1897,1921.17 1897.5,1921.5C 1892.91,1934.23 1884.91,1944.07 1873.5,1951C 1868.99,1952.95 1864.33,1953.62 1859.5,1953C 1866.86,1944.07 1871.2,1933.9 1872.5,1922.5C 1872.43,1922.94 1872.6,1923.27 1873,1923.5C 1874.99,1922.09 1877.16,1921.09 1879.5,1920.5 Z"/></g>
<g><path style="opacity:1" fill="#af9264" d="M 1861.5,1925.5 C 1865.41,1926.69 1865.41,1928.02 1861.5,1929.5C 1861.09,1928.44 1861.09,1927.11 1861.5,1925.5 Z"/></g>
<g><path style="opacity:1" fill="#c19d61" d="M 1840.5,1932.5 C 1843,1933.91 1845.66,1935.08 1848.5,1936C 1845.63,1939.2 1842.46,1942.04 1839,1944.5C 1838.19,1940.31 1838.69,1936.31 1840.5,1932.5 Z"/></g>
<g><path style="opacity:1" fill="#d5b27a" d="M 1773.5,1953.5 C 1772.83,1955.7 1772.17,1958.03 1771.5,1960.5C 1766.01,1961.67 1760.67,1963.01 1755.5,1964.5C 1751.8,1965.13 1750.97,1964.13 1753,1961.5C 1762.46,1950.69 1773.63,1942.19 1786.5,1936C 1789.72,1934.47 1793.05,1933.81 1796.5,1934C 1792.63,1938.91 1789.13,1944.07 1786,1949.5C 1785.41,1948.1 1785.57,1946.77 1786.5,1945.5C 1779.23,1943.31 1774.89,1945.97 1773.5,1953.5 Z"/></g>
<g><path style="opacity:1" fill="#d1ae76" d="M 1457.5,1935.5 C 1460.51,1936.42 1463.34,1937.75 1466,1939.5C 1465.98,1941.11 1465.81,1942.77 1465.5,1944.5C 1463.63,1944.14 1462.13,1943.14 1461,1941.5C 1459.88,1939.38 1458.38,1937.54 1456.5,1936C 1456.73,1935.6 1457.06,1935.43 1457.5,1935.5 Z"/></g>
<g><path style="opacity:1" fill="#d8b47b" d="M 1479.5,1954.5 C 1478.73,1955.26 1478.23,1956.26 1478,1957.5C 1476.96,1956.29 1475.79,1955.29 1474.5,1954.5C 1473.36,1952.22 1472.19,1949.89 1471,1947.5C 1470.32,1943.82 1471.82,1941.32 1475.5,1940C 1487.22,1937.01 1498.22,1938.68 1508.5,1945C 1511.22,1947.38 1513.55,1950.05 1515.5,1953C 1513.61,1954.9 1511.28,1956.07 1508.5,1956.5C 1500.92,1951.36 1492.59,1949.2 1483.5,1950C 1481.62,1951.05 1480.28,1952.55 1479.5,1954.5 Z"/></g>
<g><path style="opacity:1" fill="#9c793b" d="M 1457.5,1935.5 C 1457.06,1935.43 1456.73,1935.6 1456.5,1936C 1458.38,1937.54 1459.88,1939.38 1461,1941.5C 1462.13,1943.14 1463.63,1944.14 1465.5,1944.5C 1465.24,1946.79 1465.58,1948.96 1466.5,1951C 1465.21,1951.49 1463.87,1951.66 1462.5,1951.5C 1462.74,1948.21 1461.91,1945.21 1460,1942.5C 1457.17,1939.67 1454.33,1936.83 1451.5,1934C 1453.88,1933.26 1455.88,1933.76 1457.5,1935.5 Z"/></g>
<g><path style="opacity:1" fill="#a57f3d" d="M 1832.5,1942.5 C 1832.63,1949.82 1835.97,1951.98 1842.5,1949C 1849.12,1940.98 1850.95,1941.81 1848,1951.5C 1842.37,1959.56 1834.87,1965.06 1825.5,1968C 1821,1970.06 1816.33,1971.06 1811.5,1971C 1810.17,1969.33 1810.17,1967.67 1811.5,1966C 1815.59,1963.87 1819.42,1961.37 1823,1958.5C 1824.82,1954.24 1824.99,1949.9 1823.5,1945.5C 1826.29,1943.9 1829.29,1942.9 1832.5,1942.5 Z"/></g>
<g><path style="opacity:1" fill="#dab57c" d="M 1738.5,1959.5 C 1737.35,1958.38 1736.35,1958.38 1735.5,1959.5C 1730.15,1963.19 1724.82,1966.86 1719.5,1970.5C 1713.56,1971.63 1707.56,1972.3 1701.5,1972.5C 1701.35,1971.45 1701.52,1970.45 1702,1969.5C 1714.36,1957.07 1729.19,1950.23 1746.5,1949C 1743.95,1952.62 1741.28,1956.12 1738.5,1959.5 Z"/></g>
<g><path style="opacity:1" fill="#a57f3d" d="M 1474.5,1954.5 C 1475.79,1955.29 1476.96,1956.29 1478,1957.5C 1478.23,1956.26 1478.73,1955.26 1479.5,1954.5C 1479.59,1960.27 1482.59,1963.6 1488.5,1964.5C 1489.19,1966.72 1488.19,1968.22 1485.5,1969C 1474.48,1970.79 1463.48,1970.79 1452.5,1969C 1447.12,1967.62 1443.78,1964.28 1442.5,1959C 1443.91,1953.86 1447.24,1952.19 1452.5,1954C 1459.1,1956.15 1465.77,1957.98 1472.5,1959.5C 1472.12,1957.3 1472.79,1955.64 1474.5,1954.5 Z"/></g>
<g><path style="opacity:1" fill="#d6b27a" d="M 1504.5,1971.5 C 1504.44,1972.04 1504.11,1972.38 1503.5,1972.5C 1500.6,1970.88 1497.6,1969.55 1494.5,1968.5C 1494.71,1966.08 1494.37,1963.75 1493.5,1961.5C 1491.06,1959.47 1488.4,1957.8 1485.5,1956.5C 1492.69,1954.43 1499.02,1955.93 1504.5,1961C 1503.28,1964.47 1503.28,1967.97 1504.5,1971.5 Z"/></g>
<g><path style="opacity:1" fill="#d8b47b" d="M 1538.5,1981.5 C 1535.1,1981.66 1531.76,1981.32 1528.5,1980.5C 1530.33,1976.51 1529.33,1973.34 1525.5,1971C 1520.83,1970.67 1516.17,1970.33 1511.5,1970C 1508.91,1968.47 1508.08,1966.31 1509,1963.5C 1521.34,1958.5 1534.17,1956.33 1547.5,1957C 1553.78,1957.31 1558.78,1959.97 1562.5,1965C 1556.83,1965.33 1551.17,1965.67 1545.5,1966C 1535.07,1967.64 1532.73,1972.81 1538.5,1981.5 Z"/></g>
<g><path style="opacity:1" fill="#d9b57c" d="M 1681.5,1975.5 C 1674.16,1976.09 1666.83,1976.76 1659.5,1977.5C 1657.8,1977.66 1656.13,1977.49 1654.5,1977C 1665.82,1965.33 1679.49,1959.17 1695.5,1958.5C 1690.02,1963.63 1685.36,1969.3 1681.5,1975.5 Z"/></g>
<g><path style="opacity:1" fill="#a37e3d" d="M 1773.5,1953.5 C 1772.32,1966.82 1778.32,1972.32 1791.5,1970C 1795,1967.83 1797.83,1965 1800,1961.5C 1800.55,1964.42 1799.88,1967.09 1798,1969.5C 1787.76,1980.37 1775.26,1986.54 1760.5,1988C 1758.02,1986.06 1757.85,1983.9 1760,1981.5C 1762.67,1978.83 1765.33,1976.17 1768,1973.5C 1769.29,1970.65 1769.79,1967.65 1769.5,1964.5C 1764.83,1964.5 1760.17,1964.5 1755.5,1964.5C 1760.67,1963.01 1766.01,1961.67 1771.5,1960.5C 1772.17,1958.03 1772.83,1955.7 1773.5,1953.5 Z"/></g>
<g><path style="opacity:1" fill="#6e5c3f" d="M 1735.5,1959.5 C 1736.35,1958.38 1737.35,1958.38 1738.5,1959.5C 1736.47,1962.72 1733.8,1964.89 1730.5,1966C 1732.5,1964 1734.5,1962 1736.5,1960C 1736.27,1959.6 1735.94,1959.43 1735.5,1959.5 Z"/></g>
<g><path style="opacity:1" fill="#d5b279" d="M 1632.5,1980.5 C 1628.96,1980.19 1625.62,1980.52 1622.5,1981.5C 1618.52,1982.33 1614.52,1982.5 1610.5,1982C 1617.67,1974.16 1626.01,1967.83 1635.5,1963C 1641.75,1960.7 1647.75,1961.2 1653.5,1964.5C 1645.3,1968.38 1638.3,1973.71 1632.5,1980.5 Z"/></g>
<g><path style="opacity:1" fill="#d9b47b" d="M 1581.5,1963.5 C 1590.55,1963.24 1599.55,1963.74 1608.5,1965C 1601.95,1968.19 1595.28,1971.19 1588.5,1974C 1584.45,1976.39 1581.45,1979.72 1579.5,1984C 1574.91,1985.39 1570.24,1985.73 1565.5,1985C 1562.79,1983.14 1561.96,1980.64 1563,1977.5C 1567.1,1970.04 1573.27,1965.37 1581.5,1963.5 Z"/></g>
<g><path style="opacity:1" fill="#a6813f" d="M 1494.5,1968.5 C 1497.6,1969.55 1500.6,1970.88 1503.5,1972.5C 1504.11,1972.38 1504.44,1972.04 1504.5,1971.5C 1508.67,1976.37 1513.84,1977.7 1520,1975.5C 1521.4,1975.51 1522.57,1976.01 1523.5,1977C 1519.54,1978.66 1515.54,1980.33 1511.5,1982C 1510.21,1983.41 1509.05,1984.91 1508,1986.5C 1504.07,1984.41 1499.9,1982.91 1495.5,1982C 1488.15,1981.65 1480.81,1981.65 1473.5,1982C 1471.47,1980.6 1471.14,1978.94 1472.5,1977C 1477.05,1975.79 1481.72,1975.12 1486.5,1975C 1489.96,1973.7 1492.63,1971.53 1494.5,1968.5 Z"/></g>
<g><path style="opacity:1" fill="#d4b079" d="M 1557.5,1977.5 C 1556.6,1978.21 1556.26,1979.21 1556.5,1980.5C 1553.94,1980.2 1551.61,1980.53 1549.5,1981.5C 1547.74,1981.88 1546.08,1982.54 1544.5,1983.5C 1544.32,1981.33 1544.16,1979 1544,1976.5C 1542.75,1975.79 1541.58,1974.96 1540.5,1974C 1546.47,1971.02 1552.8,1969.85 1559.5,1970.5C 1558.83,1972.83 1558.17,1975.17 1557.5,1977.5 Z"/></g>
<g><path style="opacity:1" fill="#a07b3c" d="M 1719.5,1970.5 C 1714.83,1975.16 1709.16,1976.99 1702.5,1976C 1701.66,1974.99 1701.33,1973.82 1701.5,1972.5C 1707.56,1972.3 1713.56,1971.63 1719.5,1970.5 Z"/></g>
<g><path style="opacity:1" fill="#a57f3d" d="M 1725.5,1971.5 C 1725.92,1979.72 1730.25,1983.22 1738.5,1982C 1741.95,1979.76 1745.62,1978.43 1749.5,1978C 1745.1,1985.15 1739.76,1991.49 1733.5,1997C 1725.44,2000.1 1717.11,2001.44 1708.5,2001C 1706.2,1999.74 1705.37,1997.9 1706,1995.5C 1712.71,1987.63 1719.21,1979.63 1725.5,1971.5 Z"/></g>
<g><path style="opacity:1" fill="#a37e3c" d="M 1681.5,1975.5 C 1679.06,1981.23 1678.06,1987.23 1678.5,1993.5C 1684.45,1992.85 1690.12,1991.18 1695.5,1988.5C 1696.04,1990.52 1695.54,1992.52 1694,1994.5C 1683.89,2006.99 1671.39,2010.49 1656.5,2005C 1664.56,1998.7 1670.56,1990.86 1674.5,1981.5C 1669.38,1980.15 1664.38,1978.82 1659.5,1977.5C 1666.83,1976.76 1674.16,1976.09 1681.5,1975.5 Z"/></g>
<g><path style="opacity:1" fill="#a47f40" d="M 1649.5,1972.5 C 1650.04,1972.56 1650.38,1972.89 1650.5,1973.5C 1647.66,1976.67 1648,1979.5 1651.5,1982C 1656.56,1982.95 1661.56,1984.12 1666.5,1985.5C 1664.48,1988.87 1661.98,1991.87 1659,1994.5C 1658.73,1992.67 1657.89,1991.17 1656.5,1990C 1648.81,1989.83 1641.15,1989.33 1633.5,1988.5C 1637.88,1982.12 1643.22,1976.78 1649.5,1972.5 Z"/></g>
<g><path style="opacity:1" fill="#a57f3d" d="M 1528.5,1980.5 C 1531.76,1981.32 1535.1,1981.66 1538.5,1981.5C 1538.1,1984.04 1538.77,1986.21 1540.5,1988C 1544.81,1988.62 1548.97,1988.12 1553,1986.5C 1557.21,1987.04 1557.38,1988.54 1553.5,1991C 1542.3,1997.47 1530.3,1999.8 1517.5,1998C 1512.46,1995.8 1511.29,1992.3 1514,1987.5C 1519.05,1985.47 1523.88,1983.14 1528.5,1980.5 Z"/></g>
<g><path style="opacity:1" fill="#736042" d="M 1557.5,1977.5 C 1557.5,1978.83 1557.5,1980.17 1557.5,1981.5C 1554.83,1981.5 1552.17,1981.5 1549.5,1981.5C 1551.61,1980.53 1553.94,1980.2 1556.5,1980.5C 1556.26,1979.21 1556.6,1978.21 1557.5,1977.5 Z"/></g>
<g><path style="opacity:1" fill="#a27d3c" d="M 1622.5,1981.5 C 1625.62,1980.52 1628.96,1980.19 1632.5,1980.5C 1630.68,1982.8 1628.84,1985.14 1627,1987.5C 1626.1,1990.03 1626.6,1992.19 1628.5,1994C 1635.5,1994.33 1642.5,1994.67 1649.5,1995C 1642.57,2001.93 1634.57,2007.27 1625.5,2011C 1619.61,2012.26 1614.27,2011.09 1609.5,2007.5C 1618.89,2001.39 1624.23,1992.72 1625.5,1981.5C 1624.5,1981.5 1623.5,1981.5 1622.5,1981.5 Z"/></g>
<g><path style="opacity:1" fill="#f9f9f6" d="M 2164.5,2415.5 C 2163.5,2415.5 2162.5,2415.5 2161.5,2415.5C 2161.5,2413.83 2161.5,2412.17 2161.5,2410.5C 2177.46,2269.87 2193.13,2129.21 2208.5,1988.5C 2225.97,1986.34 2243.47,1984.34 2261,1982.5C 2261.83,1982.83 2262.67,1983.17 2263.5,1983.5C 2250.85,2090.74 2238.85,2198.08 2227.5,2305.5C 2259.2,2302.46 2290.86,2299.13 2322.5,2295.5C 2318.98,2330.18 2315.31,2364.85 2311.5,2399.5C 2262.51,2404.94 2213.51,2410.28 2164.5,2415.5 Z"/></g>
<g><path style="opacity:1" fill="#a37e3c" d="M 1583.5,1986.5 C 1585.6,1986.2 1587.6,1986.53 1589.5,1987.5C 1590.33,1990.34 1592,1992.5 1594.5,1994C 1598.55,1994.43 1602.55,1994.43 1606.5,1994C 1591.97,2006.91 1575.8,2009.74 1558,2002.5C 1557.29,2000.63 1557.79,1999.13 1559.5,1998C 1563.71,1996.29 1568.04,1994.96 1572.5,1994C 1575.82,1990.82 1579.48,1988.32 1583.5,1986.5 Z"/></g>
<g><path style="opacity:1" fill="#8d6d34" d="M 1594.5,1986.5 C 1594.74,1985.9 1595.24,1985.57 1596,1985.5C 1598.68,1985.96 1601.18,1986.8 1603.5,1988C 1599.98,1990.2 1596.98,1989.7 1594.5,1986.5 Z"/></g>
<g><path style="opacity:1" fill="#8c6b33" d="M 1610.5,1988.5 C 1612.95,1987.53 1615.61,1987.19 1618.5,1987.5C 1616.3,1995.53 1611.3,2000.7 1603.5,2003C 1606.96,2000.54 1610.13,1997.7 1613,1994.5C 1613.97,1991.71 1613.14,1989.71 1610.5,1988.5 Z"/></g>
<g><path style="opacity:1" fill="#403c39" d="M 1244.5,2037.5 C 1242.47,2035.14 1240.47,2032.81 1238.5,2030.5C 1237.99,2028.63 1237.32,2026.8 1236.5,2025C 1237.89,2022.64 1239.73,2022.14 1242,2023.5C 1250.48,2013.38 1259.32,2003.55 1268.5,1994C 1279.45,1993.97 1287.45,1998.81 1292.5,2008.5C 1294.4,2009.47 1296.4,2009.8 1298.5,2009.5C 1296.77,2017.5 1292.11,2019.67 1284.5,2016C 1283.21,2013.91 1282.04,2011.75 1281,2009.5C 1280.33,2008.17 1279.67,2008.17 1279,2009.5C 1278.33,2010.83 1278.33,2012.17 1279,2013.5C 1290.22,2020.68 1291.39,2029.18 1282.5,2039C 1269.48,2045.42 1256.81,2044.92 1244.5,2037.5 Z"/></g>
<g><path style="opacity:1" fill="#f9f9f6" d="M 2042.5,2027.5 C 2044.35,2023.78 2045.68,2019.78 2046.5,2015.5C 2047.17,2012.5 2047.83,2009.5 2048.5,2006.5C 2049.5,2006.5 2050.5,2006.5 2051.5,2006.5C 2067.96,2004.4 2084.29,2002.4 2100.5,2000.5C 2106.55,2000.13 2112.55,1999.47 2118.5,1998.5C 2127.65,2138.42 2135.98,2278.42 2143.5,2418.5C 2124.18,2420.59 2104.84,2422.59 2085.5,2424.5C 2084.43,2396.82 2083.09,2369.15 2081.5,2341.5C 2057.82,2343.74 2034.15,2346.24 2010.5,2349C 2001.8,2377.95 1993.8,2407.12 1986.5,2436.5C 1968.14,2438.14 1949.8,2440.14 1931.5,2442.5C 1930.5,2442.17 1929.5,2441.83 1928.5,2441.5C 1966.82,2303.56 2004.82,2165.56 2042.5,2027.5 Z"/></g>
<g><path style="opacity:1" fill="#f9f9f6" d="M 1976.5,2014.5 C 1978.17,2014.5 1979.83,2014.5 1981.5,2014.5C 1978.27,2049.21 1974.61,2083.88 1970.5,2118.5C 1952.15,2120.38 1933.82,2122.38 1915.5,2124.5C 1904.06,2232.2 1892.22,2339.87 1880,2447.5C 1861.89,2449.97 1843.73,2452.3 1825.5,2454.5C 1836.99,2347.11 1848.99,2239.78 1861.5,2132.5C 1861.17,2131.83 1860.83,2131.17 1860.5,2130.5C 1842.9,2132.94 1825.23,2134.94 1807.5,2136.5C 1811.61,2101.88 1815.27,2067.22 1818.5,2032.5C 1871.36,2027 1924.03,2021 1976.5,2014.5 Z"/></g>
<g><path style="opacity:1" fill="#302c28" d="M 2046.5,2015.5 C 2045.68,2019.78 2044.35,2023.78 2042.5,2027.5C 2040.95,2028.62 2039.28,2029.12 2037.5,2029C 2040.15,2024.18 2043.15,2019.68 2046.5,2015.5 Z"/></g>
<g><path style="opacity:1" fill="#f9f9f6" d="M 1700.5,2154.5 C 1701.46,2152.74 1701.79,2150.74 1701.5,2148.5C 1699.59,2148.22 1697.92,2148.55 1696.5,2149.5C 1687.66,2150.36 1678.83,2151.36 1670,2152.5C 1668.83,2152.17 1667.67,2151.83 1666.5,2151.5C 1670.81,2117.91 1674.64,2084.25 1678,2050.5C 1678.84,2049.38 1680.01,2048.71 1681.5,2048.5C 1721.2,2043.98 1760.87,2039.31 1800.5,2034.5C 1801.66,2037.78 1801.82,2041.12 1801,2044.5C 1797.26,2075.82 1793.59,2107.16 1790,2138.5C 1778.59,2140.2 1767.09,2141.54 1755.5,2142.5C 1747.65,2215.52 1739.65,2288.52 1731.5,2361.5C 1742.87,2360.94 1754.21,2359.94 1765.5,2358.5C 1761.61,2393.15 1757.95,2427.82 1754.5,2462.5C 1713.44,2466.79 1672.44,2471.46 1631.5,2476.5C 1631.17,2475.17 1630.83,2473.83 1630.5,2472.5C 1634.59,2439.2 1638.42,2405.86 1642,2372.5C 1653.41,2370.8 1664.91,2369.46 1676.5,2368.5C 1684.72,2297.19 1692.72,2225.86 1700.5,2154.5 Z"/></g>
<g><path style="opacity:1" fill="#fafaf7" d="M 1631.5,2053.5 C 1633.5,2053.5 1635.5,2053.5 1637.5,2053.5C 1633.69,2088.15 1630.02,2122.82 1626.5,2157.5C 1591.78,2161.08 1557.12,2165.08 1522.5,2169.5C 1519.33,2175.83 1516.17,2182.17 1513,2188.5C 1506.35,2248.69 1499.51,2308.86 1492.5,2369C 1494.28,2375.49 1495.94,2381.99 1497.5,2388.5C 1518.27,2386.62 1538.94,2384.12 1559.5,2381C 1563.63,2374.25 1566.79,2367.08 1569,2359.5C 1571.12,2344.56 1572.62,2329.56 1573.5,2314.5C 1562.17,2315.5 1550.84,2316.5 1539.5,2317.5C 1543.31,2284.84 1546.98,2252.18 1550.5,2219.5C 1579.51,2216.57 1608.51,2213.57 1637.5,2210.5C 1629.93,2273.78 1622.77,2337.11 1616,2400.5C 1601.26,2427.58 1586.93,2454.92 1573,2482.5C 1534.9,2487.08 1496.74,2491.42 1458.5,2495.5C 1450.64,2471.08 1442.47,2446.75 1434,2422.5C 1443.12,2331.77 1453.12,2241.1 1464,2150.5C 1477.91,2123.01 1492.08,2095.68 1506.5,2068.5C 1548.32,2063.55 1589.98,2058.55 1631.5,2053.5 Z"/></g>
<g><path style="opacity:1" fill="#f9f9f6" d="M 1376.5,2398.5 C 1375.57,2399.57 1375.23,2400.9 1375.5,2402.5C 1377.41,2402.78 1379.08,2402.45 1380.5,2401.5C 1388.19,2401.13 1395.86,2400.46 1403.5,2399.5C 1405.5,2399.5 1407.5,2399.5 1409.5,2399.5C 1409.5,2400.5 1409.5,2401.5 1409.5,2402.5C 1406.51,2436.02 1402.51,2469.36 1397.5,2502.5C 1356.87,2507.35 1316.2,2512.01 1275.5,2516.5C 1278.63,2485.85 1281.79,2455.18 1285,2424.5C 1285.69,2420.47 1286.53,2416.47 1287.5,2412.5C 1298.82,2411.11 1310.15,2409.77 1321.5,2408.5C 1329.65,2335.52 1337.65,2262.52 1345.5,2189.5C 1334.16,2190.38 1322.82,2191.38 1311.5,2192.5C 1315.61,2157.88 1319.27,2123.21 1322.5,2088.5C 1363.84,2084.17 1405.17,2079.83 1446.5,2075.5C 1442.92,2109.85 1439.09,2144.19 1435,2178.5C 1423.59,2180.22 1412.09,2181.55 1400.5,2182.5C 1392.13,2254.46 1384.13,2326.46 1376.5,2398.5 Z"/></g>
<g><path style="opacity:1" fill="#fafaf7" d="M 1258.5,2095.5 C 1260.17,2095.5 1261.83,2095.5 1263.5,2095.5C 1271.83,2120.82 1280.16,2146.15 1288.5,2171.5C 1278.54,2261.19 1268.38,2350.86 1258,2440.5C 1244.04,2467.96 1229.87,2495.29 1215.5,2522.5C 1167.58,2528.82 1119.58,2534.49 1071.5,2539.5C 1087.72,2396.86 1103.72,2254.2 1119.5,2111.5C 1166,2106.49 1212.34,2101.15 1258.5,2095.5 Z"/></g>
<g><path style="opacity:1" fill="#070707" d="M 2070.5,2122.5 C 2072.88,2160.98 2074.55,2199.65 2075.5,2238.5C 2063.54,2240.13 2051.54,2241.47 2039.5,2242.5C 2049.52,2202.41 2059.86,2162.41 2070.5,2122.5 Z"/></g>
<g><path style="opacity:1" fill="#91918f" d="M 1696.5,2149.5 C 1697.92,2148.55 1699.59,2148.22 1701.5,2148.5C 1701.79,2150.74 1701.46,2152.74 1700.5,2154.5C 1700.5,2152.83 1700.5,2151.17 1700.5,2149.5C 1699.17,2149.5 1697.83,2149.5 1696.5,2149.5 Z"/></g>
<g><path style="opacity:1" fill="#010101" d="M 1142.5,2428.5 C 1141.17,2428.5 1139.83,2428.5 1138.5,2428.5C 1138.5,2427.5 1138.5,2426.5 1138.5,2425.5C 1146.43,2353.49 1154.43,2281.49 1162.5,2209.5C 1183.12,2207.06 1203.79,2205.06 1224.5,2203.5C 1225.36,2207.57 1226.52,2211.57 1228,2215.5C 1228.67,2220.83 1228.67,2226.17 1228,2231.5C 1221.7,2289.22 1215.03,2346.89 1208,2404.5C 1205.17,2410.17 1202.33,2415.83 1199.5,2421.5C 1180.62,2424.78 1161.62,2427.12 1142.5,2428.5 Z"/></g>
<g><path style="opacity:1" fill="#969694" d="M 1403.5,2399.5 C 1405.61,2398.53 1407.94,2398.2 1410.5,2398.5C 1410.77,2400.1 1410.43,2401.43 1409.5,2402.5C 1409.5,2401.5 1409.5,2400.5 1409.5,2399.5C 1407.5,2399.5 1405.5,2399.5 1403.5,2399.5 Z"/></g>
<g><path style="opacity:1" fill="#5e5e5d" d="M 1376.5,2398.5 C 1376.5,2399.5 1376.5,2400.5 1376.5,2401.5C 1377.83,2401.5 1379.17,2401.5 1380.5,2401.5C 1379.08,2402.45 1377.41,2402.78 1375.5,2402.5C 1375.23,2400.9 1375.57,2399.57 1376.5,2398.5 Z"/></g>
<g><path style="opacity:1" fill="#80807e" d="M 2161.5,2410.5 C 2161.5,2412.17 2161.5,2413.83 2161.5,2415.5C 2162.5,2415.5 2163.5,2415.5 2164.5,2415.5C 2163.43,2416.43 2162.1,2416.77 2160.5,2416.5C 2160.21,2414.26 2160.54,2412.26 2161.5,2410.5 Z"/></g>
<g><path style="opacity:1" fill="#6f6f6e" d="M 1138.5,2425.5 C 1138.5,2426.5 1138.5,2427.5 1138.5,2428.5C 1139.83,2428.5 1141.17,2428.5 1142.5,2428.5C 1141.08,2429.45 1139.41,2429.78 1137.5,2429.5C 1137.23,2427.9 1137.57,2426.57 1138.5,2425.5 Z"/></g>
<g><path style="opacity:0.96" fill="#fafbf7" d="M 2189.5,2498.5 C 2197.97,2498.05 2206.3,2498.88 2214.5,2501C 2219.04,2502.76 2223.04,2505.26 2226.5,2508.5C 2223.67,2514.82 2220.34,2520.82 2216.5,2526.5C 2214.23,2527.54 2211.9,2527.71 2209.5,2527C 2200.8,2520.93 2191.8,2520.26 2182.5,2525C 2175.87,2530.98 2175.54,2536.98 2181.5,2543C 2191.11,2546.15 2200.78,2549.15 2210.5,2552C 2221.29,2557.38 2226.62,2566.22 2226.5,2578.5C 2222.49,2612.34 2203.49,2627.5 2169.5,2624C 2160.65,2622.16 2152.81,2618.32 2146,2612.5C 2147.76,2605.49 2151.26,2599.33 2156.5,2594C 2157.67,2593.83 2158.83,2593.67 2160,2593.5C 2166.54,2595.85 2173.04,2598.35 2179.5,2601C 2194.74,2602.1 2201.24,2595.27 2199,2580.5C 2197.44,2578.64 2195.61,2577.14 2193.5,2576C 2185.86,2573.87 2178.2,2571.87 2170.5,2570C 2155.37,2563.58 2149.2,2552.08 2152,2535.5C 2156.45,2514.88 2168.95,2502.55 2189.5,2498.5 Z"/></g>
<g><path style="opacity:0.962" fill="#fafbf7" d="M 2001.5,2520.5 C 2002.82,2523.26 2003.48,2526.42 2003.5,2530C 2001.85,2566.49 2000.51,2602.99 1999.5,2639.5C 1992.42,2640.92 1985.42,2640.75 1978.5,2639C 1963.21,2617.59 1948.04,2596.09 1933,2574.5C 1931.42,2598.15 1930.08,2621.81 1929,2645.5C 1921.93,2646.73 1914.77,2647.4 1907.5,2647.5C 1908.91,2608.49 1910.57,2569.49 1912.5,2530.5C 1918.87,2529.52 1925.2,2529.52 1931.5,2530.5C 1947.19,2551.69 1962.69,2573.03 1978,2594.5C 1979.09,2570.81 1980.43,2547.14 1982,2523.5C 1988.59,2522.46 1995.09,2521.46 2001.5,2520.5 Z"/></g>
<g><path style="opacity:0.96" fill="#fafbf7" d="M 1773.5,2545.5 C 1774.5,2545.5 1775.5,2545.5 1776.5,2545.5C 1776.63,2552.79 1775.96,2559.95 1774.5,2567C 1761.58,2568.21 1748.75,2569.71 1736,2571.5C 1735.45,2579.85 1735.12,2588.19 1735,2596.5C 1744.73,2594.94 1754.56,2593.94 1764.5,2593.5C 1764.71,2600.21 1764.38,2606.88 1763.5,2613.5C 1753.5,2614.5 1743.5,2615.5 1733.5,2616.5C 1732.65,2625.18 1732.65,2633.85 1733.5,2642.5C 1746.13,2640.99 1758.8,2639.65 1771.5,2638.5C 1771.58,2645.86 1771.25,2653.19 1770.5,2660.5C 1749.48,2661.87 1728.48,2663.53 1707.5,2665.5C 1709.98,2627.86 1711.98,2590.2 1713.5,2552.5C 1733.67,2550.44 1753.67,2548.11 1773.5,2545.5 Z"/></g>
<g><path style="opacity:0.954" fill="#fafbf7" d="M 1552.5,2568.5 C 1566,2566.77 1577.33,2570.77 1586.5,2580.5C 1583.79,2586.09 1580.46,2591.26 1576.5,2596C 1574.5,2596.67 1572.5,2596.67 1570.5,2596C 1549.26,2585.76 1534.76,2591.92 1527,2614.5C 1522.92,2627.61 1523.92,2640.28 1530,2652.5C 1539.05,2661.56 1549.21,2662.89 1560.5,2656.5C 1561.32,2651.17 1561.99,2645.84 1562.5,2640.5C 1559.63,2640.45 1556.79,2640.78 1554,2641.5C 1552.29,2641.56 1550.96,2640.89 1550,2639.5C 1549.53,2633.82 1549.7,2628.15 1550.5,2622.5C 1561.45,2621.04 1572.45,2620.04 1583.5,2619.5C 1582.46,2635.17 1581.29,2650.83 1580,2666.5C 1564.39,2680.53 1546.56,2684.36 1526.5,2678C 1509.61,2668.58 1501.61,2654.08 1502.5,2634.5C 1502.53,2613.56 1509.86,2595.72 1524.5,2581C 1532.84,2574.4 1542.17,2570.23 1552.5,2568.5 Z"/></g>
<g><path style="opacity:0.954" fill="#fafbf7" d="M 1390.5,2587.5 C 1392.5,2587.5 1394.5,2587.5 1396.5,2587.5C 1395.79,2594.14 1395.45,2600.81 1395.5,2607.5C 1383.83,2608.43 1372.16,2609.43 1360.5,2610.5C 1360.32,2618.17 1359.99,2625.84 1359.5,2633.5C 1368.19,2633.1 1376.86,2632.43 1385.5,2631.5C 1384.93,2637.52 1384.26,2643.52 1383.5,2649.5C 1375.07,2651.33 1366.57,2652.66 1358,2653.5C 1357.02,2661.55 1356.36,2669.55 1356,2677.5C 1366.99,2676.11 1377.99,2674.77 1389,2673.5C 1389.94,2680.3 1389.44,2686.96 1387.5,2693.5C 1369.89,2695.59 1352.22,2697.25 1334.5,2698.5C 1336.61,2663.77 1339.27,2629.1 1342.5,2594.5C 1343.03,2593.81 1343.69,2593.31 1344.5,2593C 1360.03,2591.55 1375.36,2589.72 1390.5,2587.5 Z"/></g>
<g><path style="opacity:0.953" fill="#fafbf7" d="M 1189.5,2609.5 C 1206.58,2607.45 1218.75,2614.12 1226,2629.5C 1233.05,2653.85 1229.05,2676.18 1214,2696.5C 1208.6,2702.56 1202.1,2707.06 1194.5,2710C 1180.93,2712.31 1167.26,2713.81 1153.5,2714.5C 1156.74,2680.53 1159.74,2646.53 1162.5,2612.5C 1171.71,2612.14 1180.71,2611.14 1189.5,2609.5 Z M 1189.5,2628.5 C 1200.19,2628.02 1206.69,2633.02 1209,2643.5C 1211.71,2659.64 1208.21,2674.14 1198.5,2687C 1191.35,2691.96 1183.35,2694.13 1174.5,2693.5C 1176.29,2672.18 1177.95,2650.84 1179.5,2629.5C 1183.04,2629.81 1186.38,2629.48 1189.5,2628.5 Z"/></g>
</svg>
